<?xml version="1.0" encoding="UTF-8" standalone="no"?><!DOCTYPE svg PUBLIC "-//W3C//DTD SVG 1.1//EN" "http://www.w3.org/Graphics/SVG/1.1/DTD/svg11.dtd"><svg width="100%" height="100%" viewBox="0 0 8 8" version="1.1" xmlns="http://www.w3.org/2000/svg" xmlns:xlink="http://www.w3.org/1999/xlink" xml:space="preserve" xmlns:serif="http://www.serif.com/" style="fill-rule:evenodd;clip-rule:evenodd;stroke-linejoin:round;stroke-miterlimit:2;"><g><g><path d="M5.231,0.615c-0,-0.339 -0.276,-0.615 -0.616,-0.615l-1.23,-0c-0.34,-0 -0.616,0.276 -0.616,0.615l0,6.77c0,0.339 0.276,0.615 0.616,0.615l1.23,0c0.34,0 0.616,-0.276 0.616,-0.615l-0,-6.77Z" style="fill:#5d667e;"/><path d="M7.406,5.188c0.328,0 0.594,-0.266 0.594,-0.594l0,-1.188c0,-0.328 -0.266,-0.594 -0.594,-0.594l-6.812,-0c-0.328,-0 -0.594,0.266 -0.594,0.594l0,1.188c0,0.328 0.266,0.594 0.594,0.594l6.812,0Z" style="fill:#5d667e;"/><path d="M4.725,0.774c0,-0.204 -0.166,-0.37 -0.37,-0.37l-0.741,-0c-0.205,-0 -0.371,0.166 -0.371,0.37l0,6.496c0,0.204 0.166,0.37 0.371,0.37l0.741,0c0.204,0 0.37,-0.166 0.37,-0.37l0,-6.496Z" style="fill:#080818;"/><path d="M7.232,4.763c0.205,0 0.371,-0.166 0.371,-0.37l-0,-0.741c-0,-0.205 -0.166,-0.371 -0.371,-0.371l-6.495,-0c-0.205,-0 -0.371,0.166 -0.371,0.371l0,0.741c0,0.204 0.166,0.37 0.371,0.37l6.495,0Z" style="fill:#080818;"/></g></g></svg>