<?xml version="1.0" encoding="UTF-8" standalone="no"?><!DOCTYPE svg PUBLIC "-//W3C//DTD SVG 1.1//EN" "http://www.w3.org/Graphics/SVG/1.1/DTD/svg11.dtd"><svg width="100%" height="100%" viewBox="0 0 8 8" version="1.1" xmlns="http://www.w3.org/2000/svg" xmlns:xlink="http://www.w3.org/1999/xlink" xml:space="preserve" xmlns:serif="http://www.serif.com/" style="fill-rule:evenodd;clip-rule:evenodd;stroke-linejoin:round;stroke-miterlimit:2;"><g><g><g><path d="M4.787,2.25l1.463,-0l-2.25,2.25l-2.25,-2.25l1.463,-0l-0,-2.25l1.574,0l0,2.25Z" style="fill:#080818;"/><path d="M4.394,2.531l0.872,0l-1.266,1.406l-1.266,-1.406l0.872,0l0,-2.25l0.788,0l-0,2.25Z" style="fill:#5d667e;"/></g></g><path d="M1.564,6.086c0.123,0 0.22,-0.037 0.292,-0.112c0.072,-0.075 0.108,-0.166 0.108,-0.274c-0,-0.108 -0.034,-0.189 -0.102,-0.244c-0.068,-0.055 -0.155,-0.082 -0.262,-0.082l-0.16,0l-0.068,0.712l0.192,0Zm0.252,0.512l-0.496,-0l-0.068,0.7l-0.78,-0l-0.24,-2.424l1.784,0c0.28,0 0.507,0.071 0.682,0.214c0.175,0.143 0.262,0.347 0.262,0.614c-0,0.163 -0.033,0.304 -0.098,0.424c-0.065,0.12 -0.154,0.213 -0.266,0.28c-0.216,0.128 -0.476,0.192 -0.78,0.192Z" style="fill:#080818;fill-rule:nonzero;"/><path d="M4.12,6.894c0.184,0 0.327,-0.097 0.428,-0.292c0.101,-0.195 0.152,-0.399 0.152,-0.614c-0,-0.215 -0.039,-0.386 -0.116,-0.514c-0.077,-0.128 -0.177,-0.192 -0.3,-0.192l-0.024,0l-0.164,1.612l0.024,0Zm-0.016,0.404l-0.784,0l-0.24,-2.424l1.18,0c0.595,0 1.004,0.163 1.228,0.488c0.117,0.173 0.176,0.379 0.176,0.616c-0,0.88 -0.52,1.32 -1.56,1.32Z" style="fill:#080818;fill-rule:nonzero;"/><path d="M7.632,5.786l-0,0.372l-0.672,0.168l-0.096,0.972l-0.78,0l-0.24,-2.424l1.84,0l0.124,0.496l-0.756,0.048l-0.04,0.368l0.62,-0Z" style="fill:#080818;fill-rule:nonzero;"/></g></svg>