<?xml version="1.0" encoding="UTF-8" standalone="no"?><!DOCTYPE svg PUBLIC "-//W3C//DTD SVG 1.1//EN" "http://www.w3.org/Graphics/SVG/1.1/DTD/svg11.dtd"><svg width="100%" height="100%" viewBox="0 0 8 8" version="1.1" xmlns="http://www.w3.org/2000/svg" xmlns:xlink="http://www.w3.org/1999/xlink" xml:space="preserve" xmlns:serif="http://www.serif.com/" style="fill-rule:evenodd;clip-rule:evenodd;stroke-linejoin:round;stroke-miterlimit:2;"><g><g><path d="M2.032,5.264l0.072,-1.736l3.785,0l0.072,1.736c0.023,0.033 0.036,0.067 0.036,0.101c-0,0.198 0.097,0.371 -0.5,0.464c-0.217,0.033 -0.368,-1.344 -0.77,-2.012c-0.143,-0.238 -0.635,-0.289 -0.73,-0.289c-0.069,0 -0.556,0.156 -0.651,0.289c-0.412,0.579 -0.61,2.049 -0.849,2.012c-0.598,-0.093 -0.5,-0.266 -0.5,-0.464c-0,-0.034 0.012,-0.068 0.035,-0.101Z" style="fill:#070709;"/><path d="M3.997,1.749l3.878,1.598c0,0 -3.483,1.663 -3.848,1.837c-0.019,0.01 -0.042,0.01 -0.061,0c-0.37,-0.172 -3.923,-1.837 -3.923,-1.837l3.954,-1.598Z" style="fill:#80828b;"/><path d="M3.964,1.676c0.021,-0.008 0.044,-0.008 0.066,0c0.343,0.142 3.263,1.349 3.924,1.622c0.022,0.009 0.037,0.031 0.037,0.055c-0,0.024 -0.015,0.046 -0.037,0.055c-0.703,0.29 -3.957,1.635 -3.957,1.635c-0,0 -3.25,-1.345 -3.951,-1.635c-0.022,-0.009 -0.037,-0.031 -0.037,-0.055c0,-0.024 0.015,-0.046 0.037,-0.055c0.66,-0.273 3.574,-1.48 3.918,-1.622Z" style="fill:#5d667e;"/><path d="M6.497,4.07l-2.43,-1.135l-0.07,0l-0,0.087l2.25,1.166l0.25,-0.118Z" style="fill:#080818;"/><path d="M6.54,3.95c0.078,0.021 0.067,0.128 0.069,0.175l-0.025,2.168l-0.044,-0.059l-0.033,0.064l-0.039,-0.064l-0.034,0.075l-0.043,-0.075l-0.045,0.086l-0.033,-0.086l-0.066,0.103c-0,0 -0.012,-2.162 -0.062,-2.186l-1.91,-1.107l2.265,0.906Z" style="fill:#080818;"/><path d="M3.997,2.709c0.19,-0 0.344,0.105 0.344,0.272c0,0.167 -0.154,0.303 -0.344,0.303c-0.191,-0 -0.345,-0.136 -0.345,-0.303c-0,-0.167 0.154,-0.272 0.345,-0.272Z" style="fill:#070709;"/></g></g></svg>