<?xml version="1.0" encoding="UTF-8" standalone="no"?><!DOCTYPE svg PUBLIC "-//W3C//DTD SVG 1.1//EN" "http://www.w3.org/Graphics/SVG/1.1/DTD/svg11.dtd"><svg width="100%" height="100%" viewBox="0 0 8 8" version="1.1" xmlns="http://www.w3.org/2000/svg" xmlns:xlink="http://www.w3.org/1999/xlink" xml:space="preserve" xmlns:serif="http://www.serif.com/" style="fill-rule:evenodd;clip-rule:evenodd;stroke-linejoin:round;stroke-miterlimit:2;"><g><g><path d="M7.723,1.405c0.115,-0.115 0.115,-0.303 -0,-0.419l-0.642,-0.641c-0.115,-0.116 -0.303,-0.116 -0.419,-0l-0.419,0.419c-0.116,0.116 -0.116,0.304 -0,0.419l0.641,0.642c0.116,0.116 0.304,0.116 0.419,-0l0.42,-0.42Z" style="fill:#808080;"/><path d="M7.283,1.845l-1.06,-1.061l-1.445,1.445l1.061,1.06l1.444,-1.444Z" style="fill:#5d667e;"/><g><path d="M7.409,1.719l-1.06,-1.061l-0.262,0.262l1.06,1.061l0.262,-0.262Z" style="fill:#080818;"/><path d="M7.017,2.111l-1.061,-1.06l-0.262,0.262l1.061,1.06l0.262,-0.262Z" style="fill:#080818;"/><path d="M6.624,2.504l-1.061,-1.061l-0.262,0.262l1.061,1.061l0.262,-0.262Z" style="fill:#080818;"/></g><g><path d="M0.598,7.469l1.04,-2.1l1.061,1.061l-2.101,1.039Z" style="fill:#5d667e;"/><path d="M0.599,7.47l0.347,-0.699l0.352,0.352l-0.699,0.347Z" style="fill:#070709;"/></g><path d="M6.24,2.888l-1.06,-1.061l-3.542,3.542l1.061,1.061l3.541,-3.542Z" style="fill:#080818;"/></g></g></svg>