<?xml version="1.0" encoding="UTF-8" standalone="no"?><!DOCTYPE svg PUBLIC "-//W3C//DTD SVG 1.1//EN" "http://www.w3.org/Graphics/SVG/1.1/DTD/svg11.dtd"><svg width="100%" height="100%" viewBox="0 0 8 8" version="1.1" xmlns="http://www.w3.org/2000/svg" xmlns:xlink="http://www.w3.org/1999/xlink" xml:space="preserve" xmlns:serif="http://www.serif.com/" style="fill-rule:evenodd;clip-rule:evenodd;stroke-linejoin:round;stroke-miterlimit:2;"><g><g><path d="M1.319,0.681c0.307,0.58 0.747,1.019 1.319,1.319c-0.634,0.3 -1.075,0.738 -1.319,1.319c-0.308,-0.54 -0.745,-0.982 -1.319,-1.319c0.561,-0.335 0.992,-0.781 1.319,-1.319Z" style="fill:#080818;"/><path d="M1.319,1.151c0.198,0.373 0.481,0.656 0.849,0.849c-0.408,0.193 -0.692,0.475 -0.849,0.849c-0.199,-0.347 -0.48,-0.632 -0.849,-0.849c0.361,-0.216 0.639,-0.503 0.849,-0.849Z" style="fill:#5d667e;"/></g><g><path d="M3.14,2.36c0.379,-0.2 0.665,-0.487 0.86,-0.86c0.195,0.413 0.481,0.701 0.86,0.86c-0.352,0.201 -0.64,0.486 -0.86,0.86c-0.218,-0.366 -0.509,-0.647 -0.86,-0.86Z" style="fill:#080818;"/><path d="M3.446,2.36c0.244,-0.129 0.428,-0.314 0.554,-0.554c0.126,0.266 0.31,0.451 0.554,0.554c-0.227,0.129 -0.412,0.313 -0.554,0.553c-0.141,-0.235 -0.328,-0.416 -0.554,-0.553Z" style="fill:#5d667e;"/></g><g><path d="M0.366,6.5c0.279,-0.158 0.49,-0.384 0.634,-0.678c0.144,0.326 0.355,0.553 0.634,0.678c-0.26,0.158 -0.472,0.383 -0.634,0.678c-0.161,-0.288 -0.375,-0.51 -0.634,-0.678Z" style="fill:#080818;"/><path d="M0.592,6.5c0.18,-0.102 0.315,-0.247 0.408,-0.437c0.093,0.21 0.228,0.356 0.408,0.437c-0.167,0.102 -0.304,0.247 -0.408,0.437c-0.104,-0.186 -0.242,-0.329 -0.408,-0.437Z" style="fill:#5d667e;"/></g><g><path d="M5.733,4c0.279,-0.158 0.49,-0.384 0.633,-0.678c0.144,0.326 0.355,0.553 0.634,0.678c-0.259,0.158 -0.472,0.383 -0.634,0.678c-0.16,-0.288 -0.375,-0.51 -0.633,-0.678Z" style="fill:#080818;"/><path d="M5.958,4c0.18,-0.102 0.316,-0.247 0.408,-0.437c0.093,0.21 0.229,0.356 0.408,0.437c-0.167,0.102 -0.303,0.247 -0.408,0.437c-0.103,-0.186 -0.241,-0.329 -0.408,-0.437Z" style="fill:#5d667e;"/></g><g><path d="M2.177,4.562c0.181,-0.102 0.318,-0.249 0.411,-0.439c0.094,0.211 0.231,0.358 0.412,0.439c-0.169,0.102 -0.306,0.247 -0.412,0.438c-0.104,-0.186 -0.244,-0.33 -0.411,-0.438Z" style="fill:#080818;"/><path d="M2.323,4.562c0.117,-0.066 0.205,-0.16 0.265,-0.283c0.061,0.136 0.149,0.23 0.265,0.283c-0.108,0.066 -0.197,0.159 -0.265,0.282c-0.067,-0.12 -0.157,-0.212 -0.265,-0.282Z" style="fill:#5d667e;"/></g><g><path d="M2.814,0.562c0.182,-0.102 0.319,-0.249 0.412,-0.439c0.094,0.211 0.231,0.358 0.412,0.439c-0.169,0.102 -0.307,0.247 -0.412,0.438c-0.104,-0.186 -0.244,-0.33 -0.412,-0.438Z" style="fill:#080818;"/><path d="M2.961,0.562c0.117,-0.066 0.205,-0.16 0.265,-0.283c0.06,0.136 0.148,0.23 0.265,0.283c-0.108,0.066 -0.197,0.159 -0.265,0.282c-0.067,-0.12 -0.157,-0.212 -0.265,-0.282Z" style="fill:#5d667e;"/></g><g><path d="M6.611,5.984c-0.905,0.469 -1.589,1.142 -2.056,2.016c-0.467,-0.969 -1.15,-1.643 -2.055,-2.016c0.842,-0.471 1.53,-1.139 2.055,-2.015c0.522,0.857 1.218,1.516 2.056,2.015Z" style="fill:#080818;"/><path d="M5.879,5.984c-0.582,0.302 -1.023,0.735 -1.324,1.298c-0.3,-0.623 -0.74,-1.058 -1.323,-1.298c0.542,-0.303 0.985,-0.733 1.323,-1.297c0.336,0.551 0.785,0.976 1.324,1.297Z" style="fill:#5d667e;"/></g><g><path d="M6.938,2.27c-0.247,-0.499 -0.601,-0.877 -1.061,-1.135c0.51,-0.258 0.865,-0.635 1.061,-1.135c0.248,0.465 0.6,0.845 1.062,1.135c-0.451,0.288 -0.799,0.672 -1.062,1.135Z" style="fill:#080818;"/><path d="M6.938,1.866c-0.159,-0.322 -0.387,-0.565 -0.683,-0.731c0.328,-0.166 0.557,-0.409 0.683,-0.731c0.16,0.299 0.387,0.544 0.684,0.731c-0.291,0.185 -0.514,0.433 -0.684,0.731Z" style="fill:#5d667e;"/></g><g><path d="M7,7c0.201,-0.116 0.353,-0.283 0.456,-0.5c0.104,0.24 0.255,0.408 0.456,0.5c-0.187,0.117 -0.339,0.283 -0.456,0.5c-0.116,-0.213 -0.27,-0.376 -0.456,-0.5Z" style="fill:#080818;"/><path d="M7.162,7c0.13,-0.075 0.227,-0.182 0.294,-0.322c0.067,0.155 0.164,0.262 0.294,0.322c-0.12,0.075 -0.219,0.182 -0.294,0.322c-0.074,-0.137 -0.174,-0.242 -0.294,-0.322Z" style="fill:#5d667e;"/></g></g></svg>