<?xml version="1.0" encoding="UTF-8" standalone="no"?><!DOCTYPE svg PUBLIC "-//W3C//DTD SVG 1.1//EN" "http://www.w3.org/Graphics/SVG/1.1/DTD/svg11.dtd"><svg width="100%" height="100%" viewBox="0 0 8 8" version="1.1" xmlns="http://www.w3.org/2000/svg" xmlns:xlink="http://www.w3.org/1999/xlink" xml:space="preserve" xmlns:serif="http://www.serif.com/" style="fill-rule:evenodd;clip-rule:evenodd;stroke-linejoin:round;stroke-miterlimit:2;"><g><g><g><path d="M6.329,4.957c0.399,0.37 1.311,1.22 1.669,1.588c0.025,0.026 0.016,0.2 -0.005,0.229c-0.003,0.004 -0.005,0.007 -0.008,0.011c-0.007,0.013 -0.018,0.024 -0.03,0.032c-0.01,0.008 -0.022,0.013 -0.035,0.013l-7.84,-0c-0.013,-0 -0.025,-0.005 -0.035,-0.013c-0.012,-0.008 -0.023,-0.019 -0.03,-0.032c-0.003,-0.004 -0.005,-0.007 -0.008,-0.011c-0.021,-0.029 -0.03,-0.203 -0.005,-0.229c0.358,-0.368 1.27,-1.218 1.669,-1.588l0.17,-0.178l4.318,0l0.17,0.178Z" style="fill:#070709;"/><path d="M6.156,4.619c0,0 1.357,1.42 1.812,1.897c0.025,0.025 0.032,0.064 0.019,0.098c-0.013,0.034 -0.044,0.056 -0.078,0.056l-7.832,0c-0.034,0 -0.065,-0.022 -0.078,-0.056c-0.012,-0.034 -0.005,-0.073 0.02,-0.099c0.464,-0.477 1.842,-1.896 1.842,-1.896l4.295,0Z" style="fill:#080818;"/><path d="M4.993,6.456l-1.959,-0l0.296,-0.594l1.366,0l0.297,0.594Z" style="fill:#5d667e;"/><path d="M6.626,5.698l-5.225,-0l0.632,-0.752l3.961,-0l0.632,0.752Z" style="fill:#5d667e;"/><path d="M1.777,5.669l-0.301,0l0.112,-0.126l0.274,-0l-0.085,0.126Z" style="fill:#80828b;"/><path d="M4.645,5.68l-1.257,-0l0.065,-0.127l1.129,0l0.063,0.127Z" style="fill:#80828b;"/><path d="M4.912,5.364l-0.205,0l-0.043,-0.111l0.184,0l0.064,0.111Z" style="fill:#80828b;"/><path d="M2.21,5.519l-0.278,0l0.085,-0.126l0.266,-0l-0.073,0.126Z" style="fill:#80828b;"/><path d="M5.779,5.512l0.269,0l-0.112,-0.126l-0.242,-0l0.085,0.126Z" style="fill:#80828b;"/><path d="M5.362,5.362l0.23,0l-0.086,-0.109l-0.215,0l0.071,0.109Z" style="fill:#80828b;"/><path d="M5.687,5.149l0.214,-0l-0.078,-0.084l-0.202,-0l0.066,0.084Z" style="fill:#80828b;"/><path d="M2.515,5.193l-0.197,0l0.061,-0.084l0.178,-0l-0.042,0.084Z" style="fill:#80828b;"/><g><path d="M6.189,4.67l-4.327,-0l0.097,-3.5l4.116,0l0.114,3.5Z" style="fill:#080818;"/><g><path d="M5.979,4.451l-3.907,0l0.106,-3.064l3.699,-0l0.102,3.064Z" style="fill:#5d667e;"/><path d="M5.979,4.453l-3.907,-0l0.11,-3.063l3.797,3.063Z" style="fill:#80828b;"/></g></g></g></g></g></svg>