<?xml version="1.0" encoding="UTF-8" standalone="no"?><!DOCTYPE svg PUBLIC "-//W3C//DTD SVG 1.1//EN" "http://www.w3.org/Graphics/SVG/1.1/DTD/svg11.dtd"><svg width="100%" height="100%" viewBox="0 0 8 8" version="1.1" xmlns="http://www.w3.org/2000/svg" xmlns:xlink="http://www.w3.org/1999/xlink" xml:space="preserve" xmlns:serif="http://www.serif.com/" style="fill-rule:evenodd;clip-rule:evenodd;stroke-linejoin:round;stroke-miterlimit:2;"><g><g><ellipse cx="4" cy="2.597" rx="2.563" ry="2.597" style="fill:#5d667e;"/><g><path d="M5.901,4c1.114,0.499 1.725,1.451 1.725,2.544c-0,0.511 -0.015,1.456 -0.015,1.456l-7.222,0c-0,0 -0.015,-0.945 -0.015,-1.456c0,-1.093 0.611,-2.045 1.725,-2.544c0.494,0.454 1.164,0.733 1.901,0.733c0.737,0 1.407,-0.279 1.901,-0.733Z" style="fill:#5d667e;"/><circle cx="4.009" cy="2.577" r="2.077" style="fill:#080818;"/><path d="M5.672,4.356c0.975,0.454 1.51,1.322 1.51,2.317c-0,0.466 -0.013,1.327 -0.013,1.327l-1.131,-0l0,-1.563c0,-0.373 -0.424,-0.367 -0.424,0l0,1.563l-3.21,-0l-0,-1.563c-0,-0.373 -0.424,-0.367 -0.424,0l-0,1.563l-1.131,-0c0,-0 -0.013,-0.861 -0.013,-1.327c0,-0.995 0.535,-1.863 1.51,-2.317c0.432,0.414 1.018,0.668 1.663,0.668c0.645,-0 1.231,-0.254 1.663,-0.668Z" style="fill:#080818;"/></g></g></g></svg>