<?xml version="1.0" encoding="UTF-8" standalone="no"?><!DOCTYPE svg PUBLIC "-//W3C//DTD SVG 1.1//EN" "http://www.w3.org/Graphics/SVG/1.1/DTD/svg11.dtd"><svg width="100%" height="100%" viewBox="0 0 8 8" version="1.1" xmlns="http://www.w3.org/2000/svg" xmlns:xlink="http://www.w3.org/1999/xlink" xml:space="preserve" xmlns:serif="http://www.serif.com/" style="fill-rule:evenodd;clip-rule:evenodd;stroke-linejoin:round;stroke-miterlimit:2;"><g><g><path d="M2.993,6.556l-2.993,-0.617l1.667,1.763l1.333,-0l-0.007,-1.146Z" style="fill:#5d667e;fill-rule:nonzero;"/><path d="M3.666,0.641l-0.944,3.083l2.489,3.085l0.646,-1.928l-2.191,-4.24Z" style="fill:#080818;fill-rule:nonzero;"/><path d="M6.667,1.708l-2.334,5.101l1.81,0.188c0,-0 0.743,-3.897 0.893,-4.478l-0.369,-0.811Z" style="fill:#5d667e;fill-rule:nonzero;"/><path d="M1.785,6.307l0.449,1.395l0.766,-0l-0.007,-1.146l-1.208,-0.249Z" style="fill:#070709;fill-rule:nonzero;"/><path d="M6.173,2.819l0.685,0.561c0.062,-0.305 0.092,-0.486 0.132,-0.666l-0.488,-0.646l-0.329,0.751Z" style="fill:#070709;fill-rule:nonzero;"/><path d="M6.25,6.437l-1.267,-1.048l-0.65,1.42l1.81,0.188l0.107,-0.56Z" style="fill:#070709;fill-rule:nonzero;"/><path d="M1.333,0.298l0.003,5.292l1.331,2.112l2.749,-0l0.727,-0.705c0,-0 -4.758,-6.589 -4.81,-6.699Z" style="fill:#80828b;fill-rule:nonzero;"/><path d="M6.667,1.708l-0.5,1.093l1.833,0.67l-1.333,-1.763Z" style="fill:#80828b;fill-rule:nonzero;"/></g></g></svg>