<?xml version="1.0" encoding="UTF-8" standalone="no"?><!DOCTYPE svg PUBLIC "-//W3C//DTD SVG 1.1//EN" "http://www.w3.org/Graphics/SVG/1.1/DTD/svg11.dtd"><svg width="100%" height="100%" viewBox="0 0 8 8" version="1.1" xmlns="http://www.w3.org/2000/svg" xmlns:xlink="http://www.w3.org/1999/xlink" xml:space="preserve" xmlns:serif="http://www.serif.com/" style="fill-rule:evenodd;clip-rule:evenodd;stroke-linejoin:round;stroke-miterlimit:2;"><g><g><g><g><ellipse cx="4" cy="7.576" rx="2.393" ry="0.375" style="fill:#070709;"/><g><path d="M0.725,1.379c2.21,-0.536 4.396,-0.564 6.55,-0l-1.167,6.235c-1.392,0.232 -2.796,0.235 -4.216,-0l-1.167,-6.235Z" style="fill:#5d667e;"/><path d="M0.725,1.379c2.127,0.346 4.311,0.342 6.55,-0l-1.167,6.235c-1.392,0.232 -2.796,0.235 -4.216,-0l-1.167,-6.235Z" style="fill:#5d667e;"/><path d="M1.368,1.379c1.634,-0.265 3.38,-0.314 5.238,-0l-0.933,5.778l-3.372,0l-0.933,-5.778Z" style="fill:#080818;"/><path d="M3.165,7.378l-0.291,-5.748l-0.608,0.023l0.291,5.748l0.608,-0.023Z" style="fill:#5d667e;"/><path d="M4.821,7.378l0.292,-5.748l0.608,0.023l-0.292,5.748l-0.608,-0.023Z" style="fill:#5d667e;"/><path d="M6.054,6.936c-1.366,0.203 -2.731,0.191 -4.097,-0l-0,0.343c1.366,0.258 2.731,0.269 4.097,0l-0,-0.343Z" style="fill:#5d667e;"/><path d="M4.312,7.392l-0,-5.568l-0.624,-0l0,5.568l0.624,0Z" style="fill:#5d667e;"/></g><path d="M0.495,1.039c0.269,-0.328 1.737,-0.414 3.505,-0.414c1.765,-0 3.231,0.085 3.504,0.412c0.015,-0.004 0.045,0.782 0.045,0.782c-1.142,0.271 -5.955,0.273 -7.098,-0c-0,-0 0.001,-0.025 0.002,-0.066c0.008,-0.188 0.03,-0.718 0.042,-0.714Z" style="fill:#808080;"/><path d="M2.898,2.074c0.747,0.034 1.479,0.033 2.198,0c0.612,0 2.453,-0.174 2.453,-0.317c-1.142,0.264 -5.955,0.266 -7.098,0c-0,0.156 1.839,0.317 2.447,0.317Z" style="fill:#070709;"/><path d="M0.495,1.039c0.28,0.288 6.747,0.289 7.009,-0.002c0.015,-0.004 0.045,0.782 0.045,0.782c-1.142,0.271 -5.955,0.273 -7.098,-0c-0,-0 0.001,-0.025 0.002,-0.066c0.008,-0.188 0.03,-0.718 0.042,-0.714Z" style="fill:#5d667e;"/></g><path d="M3.304,0.88l0,-0.38c0,-0.108 0.071,-0.159 0.196,-0.173c0.337,-0.038 0.67,-0.039 1,-0c0.143,0.016 0.204,0.065 0.213,0.173l-0,0.38c0.116,0.042 0.229,0.042 0.338,-0c-0,-0 -0.059,-0.399 -0.088,-0.596c-0.01,-0.065 -0.058,-0.116 -0.122,-0.129c-0.28,-0.055 -0.507,-0.095 -0.841,-0.095c-0.303,-0 -0.549,0.038 -0.853,0.095c-0.066,0.013 -0.116,0.066 -0.125,0.133c-0.024,0.198 -0.073,0.592 -0.073,0.592c0.118,0.043 0.237,0.04 0.355,-0Z" style="fill:#080818;"/></g></g></g></svg>