<?xml version="1.0" encoding="UTF-8" standalone="no"?><!DOCTYPE svg PUBLIC "-//W3C//DTD SVG 1.1//EN" "http://www.w3.org/Graphics/SVG/1.1/DTD/svg11.dtd"><svg width="100%" height="100%" viewBox="0 0 8 8" version="1.1" xmlns="http://www.w3.org/2000/svg" xmlns:xlink="http://www.w3.org/1999/xlink" xml:space="preserve" xmlns:serif="http://www.serif.com/" style="fill-rule:evenodd;clip-rule:evenodd;stroke-linejoin:round;stroke-miterlimit:2;"><g><g><path d="M7.797,7.104c-0,0.059 -0.126,0.108 -0.281,0.108l-7.032,-0c-0.155,-0 -0.281,-0.049 -0.281,-0.108l0,-0.39c0,-0.075 0.126,-0.135 0.281,-0.135l7.032,-0c0.155,-0 0.281,0.06 0.281,0.135l-0,0.39Z" style="fill:#070709;"/><path d="M3.162,2.466l0,-1.266l1.696,0l0,1.266l0.408,-0l-0,-1.524c-0,-0.085 -0.069,-0.154 -0.154,-0.154l-2.224,0c-0.085,0 -0.154,0.069 -0.154,0.154c0,0.415 0,1.524 0,1.524l0.428,-0Z" style="fill:#070709;"/><path d="M7.797,2.13c-0,-0.164 -0.133,-0.297 -0.297,-0.297c-1.214,0 -5.786,0 -7,0c-0.164,0 -0.297,0.133 -0.297,0.297c0,0.876 0,3.444 0,4.4c0,0.202 0.164,0.365 0.365,0.365c1.283,0 5.581,0 6.864,0c0.201,0 0.365,-0.163 0.365,-0.365c-0,-0.956 -0,-3.524 -0,-4.4Z" style="fill:#080818;"/><path d="M8,2.595c-0,-0.531 -0.431,-0.963 -0.963,-0.963l-6.074,0c-0.532,0 -0.963,0.432 -0.963,0.963l-0,1.926c-0,0.531 0.431,0.963 0.963,0.963c2.036,0.179 4.061,0.179 6.074,-0c0.532,-0 0.963,-0.432 0.963,-0.963l-0,-1.926Z" style="fill:#5d667e;"/><path d="M7.797,2.699c-0,-0.478 -0.41,-0.866 -0.914,-0.866l-5.766,0c-0.504,0 -0.914,0.388 -0.914,0.866l0,1.731c0,0.478 0.41,0.866 0.914,0.866c1.933,0.161 3.855,0.161 5.766,-0c0.504,-0 0.914,-0.388 0.914,-0.866l-0,-1.731Z" style="fill:#080818;"/><path d="M1.978,5.124c0,-0.07 -0.057,-0.127 -0.127,-0.127l-0.255,-0c-0.07,-0 -0.127,0.057 -0.127,0.127l-0,0.859c-0,0.07 0.057,0.128 0.127,0.128l0.255,-0c0.07,-0 0.127,-0.058 0.127,-0.128l0,-0.859Z" style="fill:#808080;"/><path d="M6.531,5.124c0,-0.07 -0.057,-0.127 -0.127,-0.127l-0.255,-0c-0.07,-0 -0.127,0.057 -0.127,0.127l-0,0.859c-0,0.07 0.057,0.128 0.127,0.128l0.255,-0c0.07,-0 0.127,-0.058 0.127,-0.128l0,-0.859Z" style="fill:#808080;"/></g></g></svg>