<?xml version="1.0" encoding="UTF-8" standalone="no"?><!DOCTYPE svg PUBLIC "-//W3C//DTD SVG 1.1//EN" "http://www.w3.org/Graphics/SVG/1.1/DTD/svg11.dtd"><svg width="100%" height="100%" viewBox="0 0 8 8" version="1.1" xmlns="http://www.w3.org/2000/svg" xmlns:xlink="http://www.w3.org/1999/xlink" xml:space="preserve" xmlns:serif="http://www.serif.com/" style="fill-rule:evenodd;clip-rule:evenodd;stroke-linejoin:round;stroke-miterlimit:2;"><g><g><circle cx="4" cy="4" r="4" style="fill:#dedeea;"/><g><g><path d="M4,4.708c1.909,0 3.46,0.299 3.46,0.94c0,0.642 -1.551,1.372 -3.46,1.372c-1.909,-0 -3.46,-0.73 -3.46,-1.372c0,-0.641 1.551,-0.94 3.46,-0.94Z" style="fill:#080818;"/><path d="M2.451,0.98c1.749,0 2.821,2.779 3.394,4.372c-0.565,0.806 -3.144,0.714 -3.69,0c0.487,-1.43 0.719,-2.881 0.296,-4.372Z" style="fill:#080818;"/></g><path d="M6.065,5.449c-0.566,0.912 -3.801,0.392 -3.99,-0.124c0.167,-0.314 0.248,-0.641 0.376,-0.956c0.323,0.168 1.964,0.457 2.234,0.493c0.539,0.072 0.893,0.126 0.844,-0.37c0.105,0.32 0.377,0.638 0.536,0.957Z" style="fill:#5d667e;"/></g></g></g></svg>