<?xml version="1.0" encoding="UTF-8" standalone="no"?><!DOCTYPE svg PUBLIC "-//W3C//DTD SVG 1.1//EN" "http://www.w3.org/Graphics/SVG/1.1/DTD/svg11.dtd"><svg width="100%" height="100%" viewBox="0 0 2 1" version="1.1" xmlns="http://www.w3.org/2000/svg" xmlns:xlink="http://www.w3.org/1999/xlink" xml:space="preserve" xmlns:serif="http://www.serif.com/" style="fill-rule:evenodd;clip-rule:evenodd;stroke-linejoin:round;stroke-miterlimit:2;"><path d="M0.341,0.216c-0.109,-0.051 -0.223,-0.046 -0.341,-0c0,-0 0.055,0.248 0.055,0.372c-0,0.124 -0.055,0.372 -0.055,0.372c0.125,-0.038 0.238,-0.036 0.341,-0c0.008,-0.248 0.01,-0.496 0,-0.744Z" style="fill:#917c64;"/><path d="M1.579,0.215c0.109,-0.051 0.223,-0.046 0.341,-0c-0,-0 -0.055,0.248 -0.055,0.372c0,0.124 0.055,0.372 0.055,0.372c-0.125,-0.038 -0.238,-0.036 -0.341,-0c-0.008,-0.248 -0.01,-0.496 -0,-0.744Z" style="fill:#917c64;"/><path d="M0.236,0.81c0.059,0.03 0.098,0.098 0.105,0.149c0.06,-0.102 0.041,-0.311 0,-0.447l-0.105,0.298Z" style="fill:#625246;"/><path d="M1.684,0.81c-0.059,0.03 -0.098,0.098 -0.105,0.149c-0.06,-0.102 -0.041,-0.311 -0,-0.447l0.105,0.298Z" style="fill:#625246;"/><path d="M1.683,0.066c-0.476,-0.086 -0.959,-0.09 -1.448,-0c0.029,0.254 0.045,0.495 0,0.744c0.459,-0.082 0.941,-0.082 1.448,0c-0.052,-0.245 -0.039,-0.493 0,-0.744Z" style="fill:#a49381;"/><path d="M0.569,0.365c0.008,0 0.014,-0.002 0.018,-0.007c0.004,-0.004 0.006,-0.01 0.006,-0.016c0,-0.006 -0.002,-0.011 -0.006,-0.015c-0.004,-0.003 -0.009,-0.005 -0.015,-0.005l-0.01,0l-0.004,0.043l0.011,0Zm0.016,0.031l-0.03,-0l-0.004,0.042l-0.047,-0l-0.015,-0.146l0.108,0c0.016,0 0.03,0.005 0.04,0.013c0.011,0.009 0.016,0.021 0.016,0.037c0,0.01 -0.002,0.018 -0.006,0.026c-0.004,0.007 -0.009,0.012 -0.016,0.016c-0.013,0.008 -0.028,0.012 -0.046,0.012Z" style="fill:#080818;fill-rule:nonzero;"/><path d="M0.715,0.34c0.008,-0.013 0.019,-0.019 0.031,-0.019c0.006,-0 0.012,0.001 0.017,0.004l-0.006,0.039c-0.007,-0.004 -0.014,-0.006 -0.022,-0.006c-0.007,-0 -0.013,0.003 -0.015,0.009c-0.002,0.004 -0.003,0.008 -0.003,0.012l-0.005,0.059l-0.043,-0l-0.007,-0.114l0.047,0l0.006,0.016Z" style="fill:#080818;fill-rule:nonzero;"/><path d="M0.832,0.44c-0.018,0 -0.033,-0.005 -0.045,-0.015c-0.012,-0.011 -0.018,-0.026 -0.018,-0.047c-0,-0.012 0.003,-0.023 0.009,-0.032c0.011,-0.017 0.029,-0.025 0.053,-0.025c0.018,-0 0.032,0.003 0.042,0.011c0.009,0.007 0.014,0.017 0.014,0.03c-0,0.01 -0.004,0.018 -0.012,0.024c-0.008,0.006 -0.019,0.009 -0.035,0.009c-0.006,0 -0.011,-0 -0.016,-0.001l-0.003,-0.001c0.001,0.006 0.003,0.01 0.007,0.013c0.005,0.003 0.01,0.004 0.016,0.004c0.009,0 0.018,-0.003 0.025,-0.009l0.015,0.018c-0.003,0.003 -0.006,0.006 -0.01,0.009c-0.003,0.003 -0.009,0.005 -0.016,0.008c-0.008,0.003 -0.016,0.004 -0.026,0.004Zm0.02,-0.08c-0,-0.004 -0.001,-0.006 -0.004,-0.008c-0.002,-0.002 -0.006,-0.003 -0.01,-0.003c-0.004,-0 -0.008,0.002 -0.012,0.005c-0.004,0.004 -0.006,0.009 -0.006,0.014c0.004,0.002 0.008,0.002 0.014,0.002c0.006,0 0.01,-0.001 0.013,-0.003c0.003,-0.002 0.005,-0.004 0.005,-0.007Z" style="fill:#080818;fill-rule:nonzero;"/><path d="M0.961,0.398c0.013,-0.018 0.02,-0.043 0.02,-0.074l0.039,0c-0,0.022 -0.003,0.041 -0.009,0.057c-0.006,0.016 -0.012,0.028 -0.019,0.037c-0.007,0.009 -0.012,0.015 -0.016,0.018l-0.002,0.002l-0.048,-0l-0.035,-0.114l0.059,0l0.011,0.074Z" style="fill:#080818;fill-rule:nonzero;"/><path d="M1.089,0.327l0.004,-0.001l-0.008,0.112l-0.045,-0l-0.008,-0.112c0.009,0.004 0.019,0.006 0.029,0.006c0.01,-0 0.02,-0.002 0.028,-0.005Zm-0.027,-0.006c-0.008,0 -0.014,-0.002 -0.02,-0.007c-0.005,-0.005 -0.008,-0.011 -0.008,-0.019c0,-0.008 0.003,-0.014 0.008,-0.019c0.005,-0.004 0.012,-0.007 0.02,-0.007c0.008,0 0.015,0.003 0.021,0.007c0.005,0.005 0.008,0.011 0.008,0.019c-0,0.008 -0.003,0.014 -0.008,0.019c-0.006,0.005 -0.013,0.007 -0.021,0.007Z" style="fill:#080818;fill-rule:nonzero;"/><path d="M1.17,0.44c-0.018,0 -0.033,-0.005 -0.045,-0.015c-0.013,-0.011 -0.019,-0.026 -0.019,-0.047c0,-0.012 0.003,-0.023 0.01,-0.032c0.011,-0.017 0.029,-0.025 0.052,-0.025c0.019,-0 0.033,0.003 0.042,0.011c0.01,0.007 0.015,0.017 0.015,0.03c-0,0.01 -0.004,0.018 -0.012,0.024c-0.008,0.006 -0.02,0.009 -0.035,0.009c-0.006,0 -0.012,-0 -0.017,-0.001l-0.002,-0.001c0,0.006 0.003,0.01 0.007,0.013c0.004,0.003 0.009,0.004 0.015,0.004c0.01,0 0.018,-0.003 0.025,-0.009l0.015,0.018c-0.002,0.003 -0.005,0.006 -0.009,0.009c-0.003,0.003 -0.009,0.005 -0.017,0.008c-0.007,0.003 -0.016,0.004 -0.025,0.004Zm0.02,-0.08c-0,-0.004 -0.002,-0.006 -0.004,-0.008c-0.003,-0.002 -0.006,-0.003 -0.01,-0.003c-0.005,-0 -0.009,0.002 -0.012,0.005c-0.004,0.004 -0.006,0.009 -0.006,0.014c0.003,0.002 0.008,0.002 0.014,0.002c0.005,0 0.01,-0.001 0.013,-0.003c0.003,-0.002 0.005,-0.004 0.005,-0.007Z" style="fill:#080818;fill-rule:nonzero;"/><path d="M1.396,0.324l0.036,0c-0,0.015 -0.002,0.029 -0.004,0.042c-0.003,0.014 -0.007,0.024 -0.011,0.033c-0.008,0.017 -0.016,0.029 -0.022,0.035l-0.005,0.004l-0.048,-0l-0.012,-0.039c-0.003,0.008 -0.007,0.015 -0.011,0.022c-0.005,0.006 -0.008,0.01 -0.011,0.013l-0.004,0.004l-0.041,-0l-0.035,-0.114l0.06,0l0.01,0.072c0.001,-0.001 0.002,-0.003 0.004,-0.005c0.001,-0.002 0.004,-0.006 0.007,-0.014c0.004,-0.008 0.006,-0.016 0.008,-0.025l-0.01,-0.028l0.06,0l0.009,0.072c0.005,-0.005 0.009,-0.013 0.013,-0.024c0.005,-0.013 0.007,-0.029 0.007,-0.048Z" style="fill:#080818;fill-rule:nonzero;"/></svg>