<?xml version="1.0" encoding="UTF-8" standalone="no"?><!DOCTYPE svg PUBLIC "-//W3C//DTD SVG 1.1//EN" "http://www.w3.org/Graphics/SVG/1.1/DTD/svg11.dtd"><svg width="100%" height="100%" viewBox="0 0 2 1" version="1.1" xmlns="http://www.w3.org/2000/svg" xmlns:xlink="http://www.w3.org/1999/xlink" xml:space="preserve" xmlns:serif="http://www.serif.com/" style="fill-rule:evenodd;clip-rule:evenodd;stroke-linejoin:round;stroke-miterlimit:2;"><path d="M0.341,0.216c-0.109,-0.051 -0.223,-0.046 -0.341,-0c0,-0 0.055,0.248 0.055,0.372c-0,0.124 -0.055,0.372 -0.055,0.372c0.125,-0.038 0.238,-0.036 0.341,-0c0.008,-0.248 0.01,-0.496 0,-0.744Z" style="fill:#917c64;"/><path d="M1.579,0.215c0.109,-0.051 0.223,-0.046 0.341,-0c-0,-0 -0.055,0.248 -0.055,0.372c0,0.124 0.055,0.372 0.055,0.372c-0.125,-0.038 -0.238,-0.036 -0.341,-0c-0.008,-0.248 -0.01,-0.496 -0,-0.744Z" style="fill:#917c64;"/><path d="M0.236,0.81c0.059,0.03 0.098,0.098 0.105,0.149c0.06,-0.102 0.041,-0.311 0,-0.447l-0.105,0.298Z" style="fill:#625246;"/><path d="M1.684,0.81c-0.059,0.03 -0.098,0.098 -0.105,0.149c-0.06,-0.102 -0.041,-0.311 -0,-0.447l0.105,0.298Z" style="fill:#625246;"/><path d="M1.683,0.066c-0.476,-0.086 -0.959,-0.09 -1.448,-0c0.029,0.254 0.045,0.495 0,0.744c0.459,-0.082 0.941,-0.082 1.448,0c-0.052,-0.245 -0.039,-0.493 0,-0.744Z" style="fill:#a49381;"/><g transform="matrix(0.24,0,0,0.24,0.12,0.12)"><g transform="matrix(1,0,0,1,1.358,0.8245)"><path d="M0.358,-0.303c0.031,0 0.055,-0.009 0.073,-0.028c0.018,-0.019 0.027,-0.041 0.027,-0.069c0,-0.026 -0.009,-0.047 -0.026,-0.061c-0.017,-0.013 -0.038,-0.02 -0.065,-0.02l-0.04,0l-0.017,0.178l0.048,0Zm0.063,0.128l-0.124,0l-0.017,0.175l-0.195,0l-0.06,-0.606l0.446,0c0.07,0 0.127,0.018 0.17,0.053c0.044,0.036 0.066,0.087 0.066,0.154c-0,0.041 -0.008,0.076 -0.025,0.106c-0.016,0.03 -0.038,0.053 -0.066,0.07c-0.054,0.032 -0.119,0.048 -0.195,0.048Z" style="fill:#080818;fill-rule:nonzero;"/></g><g transform="matrix(1,0,0,1,2.07,0.8245)"><path d="M0.291,0.01c-0.075,-0 -0.138,-0.022 -0.189,-0.066c-0.051,-0.043 -0.077,-0.107 -0.077,-0.192c0,-0.053 0.013,-0.099 0.039,-0.136c0.047,-0.069 0.121,-0.104 0.22,-0.104c0.076,0 0.134,0.015 0.174,0.045c0.04,0.031 0.06,0.073 0.06,0.126c0,0.041 -0.017,0.075 -0.049,0.101c-0.034,0.025 -0.082,0.038 -0.145,0.038c-0.026,0 -0.049,-0.002 -0.07,-0.006l-0.011,-0.002c0.003,0.024 0.014,0.042 0.031,0.053c0.018,0.012 0.039,0.018 0.064,0.018c0.041,0 0.075,-0.012 0.104,-0.037l0.062,0.075c-0.011,0.013 -0.023,0.025 -0.038,0.035c-0.015,0.011 -0.038,0.023 -0.07,0.034c-0.032,0.012 -0.067,0.018 -0.105,0.018Zm0.081,-0.336c-0,-0.013 -0.005,-0.024 -0.016,-0.033c-0.01,-0.009 -0.024,-0.013 -0.042,-0.013c-0.018,0 -0.035,0.008 -0.051,0.024c-0.015,0.016 -0.023,0.035 -0.023,0.057c0.015,0.007 0.034,0.01 0.057,0.01c0.024,-0 0.042,-0.004 0.055,-0.013c0.013,-0.008 0.02,-0.019 0.02,-0.032Z" style="fill:#080818;fill-rule:nonzero;"/></g><g transform="matrix(1,0,0,1,2.613,0.8245)"><path d="M0.252,-0.409c0.035,-0.053 0.079,-0.079 0.131,-0.079c0.025,0 0.047,0.006 0.068,0.018l-0.024,0.164c-0.027,-0.019 -0.057,-0.028 -0.09,-0.028c-0.032,0 -0.054,0.013 -0.065,0.04c-0.007,0.017 -0.011,0.033 -0.013,0.048l-0.019,0.246l-0.18,0l-0.03,-0.474l0.197,0l0.025,0.065Z" style="fill:#080818;fill-rule:nonzero;"/></g><g transform="matrix(1,0,0,1,3.064,0.8245)"><path d="M0.464,-0.15c0,0.038 -0.013,0.07 -0.038,0.095c-0.025,0.025 -0.055,0.042 -0.088,0.051c-0.033,0.009 -0.064,0.014 -0.095,0.014c-0.031,-0 -0.058,-0.002 -0.081,-0.006c-0.023,-0.004 -0.042,-0.009 -0.058,-0.014c-0.029,-0.011 -0.053,-0.022 -0.07,-0.032l-0.009,-0.006l0.044,-0.091c0.04,0.023 0.074,0.034 0.101,0.034c0.027,-0 0.041,-0.011 0.041,-0.034c-0,-0.011 -0.009,-0.023 -0.026,-0.035c-0.017,-0.012 -0.036,-0.023 -0.057,-0.034c-0.02,-0.011 -0.039,-0.027 -0.056,-0.049c-0.017,-0.022 -0.026,-0.047 -0.026,-0.076c-0,-0.051 0.019,-0.09 0.058,-0.116c0.039,-0.026 0.09,-0.039 0.153,-0.039c0.032,0 0.063,0.003 0.094,0.008c0.031,0.005 0.054,0.011 0.069,0.016l0.022,0.009l-0.025,0.101c-0.038,-0.014 -0.07,-0.021 -0.097,-0.021c-0.027,0 -0.04,0.01 -0.04,0.031c-0,0.01 0.006,0.019 0.019,0.028c0.013,0.009 0.028,0.018 0.046,0.027c0.018,0.009 0.036,0.018 0.054,0.029c0.018,0.011 0.033,0.026 0.046,0.045c0.013,0.019 0.019,0.041 0.019,0.065Z" style="fill:#080818;fill-rule:nonzero;"/></g><g transform="matrix(1,0,0,1,3.553,0.8245)"><path d="M0.098,-0.05c-0.049,-0.039 -0.073,-0.102 -0.073,-0.189c-0,-0.087 0.024,-0.15 0.073,-0.19c0.048,-0.039 0.112,-0.059 0.193,-0.059c0.081,0 0.145,0.02 0.193,0.059c0.049,0.04 0.073,0.103 0.073,0.19c0,0.087 -0.024,0.15 -0.073,0.19c-0.048,0.039 -0.112,0.059 -0.193,0.059c-0.081,-0 -0.145,-0.02 -0.194,-0.06Zm0.152,-0.303c-0.008,0.023 -0.012,0.061 -0.012,0.114c-0,0.053 0.004,0.091 0.012,0.113c0.008,0.024 0.022,0.035 0.042,0.035c0.02,0 0.034,-0.011 0.042,-0.035c0.008,-0.022 0.012,-0.06 0.012,-0.113c-0,-0.053 -0.004,-0.091 -0.012,-0.113c-0.008,-0.024 -0.022,-0.035 -0.042,-0.035c-0.02,0 -0.034,0.012 -0.042,0.035Z" style="fill:#080818;fill-rule:nonzero;"/></g><g transform="matrix(1,0,0,1,4.135,0.8245)"><path d="M0.408,-0.488c0.047,0 0.087,0.02 0.12,0.059c0.034,0.039 0.051,0.09 0.051,0.153c-0,0.064 -0.008,0.155 -0.023,0.276l-0.175,-0l-0.02,-0.224c-0.007,-0.071 -0.026,-0.107 -0.058,-0.107c-0.038,0 -0.058,0.036 -0.061,0.108l-0.007,0.223l-0.184,0l-0.021,-0.474l0.226,0l-0.004,0.085c0.003,-0.007 0.011,-0.017 0.023,-0.031c0.012,-0.014 0.024,-0.025 0.035,-0.034c0.029,-0.023 0.062,-0.034 0.098,-0.034Z" style="fill:#080818;fill-rule:nonzero;"/></g><g transform="matrix(1,0,0,1,4.744,0.8245)"><path d="M0.201,0.01c-0.051,-0 -0.094,-0.015 -0.127,-0.045c-0.033,-0.03 -0.049,-0.073 -0.049,-0.128c-0,-0.054 0.019,-0.095 0.056,-0.119c0.037,-0.025 0.082,-0.038 0.135,-0.038c0.053,0 0.098,0.008 0.137,0.025c-0.009,-0.055 -0.044,-0.083 -0.105,-0.083c-0.028,0 -0.063,0.006 -0.104,0.017l-0.025,-0.09c0.06,-0.025 0.121,-0.037 0.183,-0.037c0.179,-0 0.268,0.076 0.268,0.228c-0,0.052 -0.006,0.124 -0.018,0.216l-0.005,0.044l-0.165,-0l-0.006,-0.055c-0.045,0.043 -0.104,0.065 -0.175,0.065Zm0.09,-0.124c0.03,-0 0.056,-0.008 0.077,-0.025l-0.006,-0.066c-0.017,-0.011 -0.035,-0.017 -0.055,-0.017c-0.021,-0 -0.037,0.005 -0.05,0.015c-0.014,0.01 -0.02,0.022 -0.02,0.037c-0,0.015 0.005,0.028 0.015,0.039c0.01,0.011 0.023,0.017 0.039,0.017Z" style="fill:#080818;fill-rule:nonzero;"/></g><g transform="matrix(1,0,0,1,5.344,0.8245)"><path d="M0.268,-0.649l-0.027,0.649l-0.184,-0l-0.027,-0.649l0.238,0Z" style="fill:#080818;fill-rule:nonzero;"/></g><g transform="matrix(1,0,0,1,1.824,1.8245)"><path d="M0.285,-0.101c0.046,0 0.082,-0.024 0.107,-0.073c0.025,-0.049 0.038,-0.1 0.038,-0.154c0,-0.053 -0.01,-0.096 -0.029,-0.128c-0.019,-0.032 -0.044,-0.048 -0.075,-0.048l-0.006,0l-0.041,0.403l0.006,-0Zm-0.004,0.101l-0.196,-0l-0.06,-0.606l0.295,0c0.149,0 0.251,0.041 0.307,0.122c0.029,0.043 0.044,0.095 0.044,0.154c0,0.22 -0.13,0.33 -0.39,0.33Z" style="fill:#080818;fill-rule:nonzero;"/></g><g transform="matrix(1,0,0,1,2.515,1.8245)"><path d="M0.291,0.01c-0.075,-0 -0.138,-0.022 -0.189,-0.066c-0.051,-0.043 -0.077,-0.107 -0.077,-0.192c0,-0.053 0.013,-0.099 0.039,-0.136c0.047,-0.069 0.121,-0.104 0.22,-0.104c0.076,0 0.134,0.015 0.174,0.045c0.04,0.031 0.06,0.073 0.06,0.126c0,0.041 -0.017,0.075 -0.049,0.101c-0.034,0.025 -0.082,0.038 -0.145,0.038c-0.026,0 -0.049,-0.002 -0.07,-0.006l-0.011,-0.002c0.003,0.024 0.014,0.042 0.031,0.053c0.018,0.012 0.039,0.018 0.064,0.018c0.041,0 0.075,-0.012 0.104,-0.037l0.062,0.075c-0.011,0.013 -0.023,0.025 -0.038,0.035c-0.015,0.011 -0.038,0.023 -0.07,0.034c-0.032,0.012 -0.067,0.018 -0.105,0.018Zm0.081,-0.336c-0,-0.013 -0.005,-0.024 -0.016,-0.033c-0.01,-0.009 -0.024,-0.013 -0.042,-0.013c-0.018,0 -0.035,0.008 -0.051,0.024c-0.015,0.016 -0.023,0.035 -0.023,0.057c0.015,0.007 0.034,0.01 0.057,0.01c0.024,-0 0.042,-0.004 0.055,-0.013c0.013,-0.008 0.02,-0.019 0.02,-0.032Z" style="fill:#080818;fill-rule:nonzero;"/></g><g transform="matrix(1,0,0,1,3.058,1.8245)"><path d="M0.295,-0.178c-0.001,0.039 0.013,0.058 0.041,0.058c0.008,0 0.018,-0.004 0.029,-0.011l0.021,0.097c-0.004,0.003 -0.01,0.008 -0.017,0.013c-0.007,0.005 -0.022,0.011 -0.044,0.019c-0.024,0.008 -0.047,0.012 -0.072,0.012c-0.045,-0 -0.082,-0.015 -0.111,-0.047c-0.029,-0.031 -0.044,-0.07 -0.046,-0.118l-0.009,-0.189l-0.077,0l0.012,-0.13l0.06,0l-0.004,-0.098l0.237,-0.048l-0.007,0.146l0.058,0l0.012,0.13l-0.076,0l-0.007,0.166Z" style="fill:#080818;fill-rule:nonzero;"/></g><g transform="matrix(1,0,0,1,3.474,1.8245)"><path d="M0.201,0.01c-0.051,-0 -0.094,-0.015 -0.127,-0.045c-0.033,-0.03 -0.049,-0.073 -0.049,-0.128c-0,-0.054 0.019,-0.095 0.056,-0.119c0.037,-0.025 0.082,-0.038 0.135,-0.038c0.053,0 0.098,0.008 0.137,0.025c-0.009,-0.055 -0.044,-0.083 -0.105,-0.083c-0.028,0 -0.063,0.006 -0.104,0.017l-0.025,-0.09c0.06,-0.025 0.121,-0.037 0.183,-0.037c0.179,-0 0.268,0.076 0.268,0.228c-0,0.052 -0.006,0.124 -0.018,0.216l-0.005,0.044l-0.165,-0l-0.006,-0.055c-0.045,0.043 -0.104,0.065 -0.175,0.065Zm0.09,-0.124c0.03,-0 0.056,-0.008 0.077,-0.025l-0.006,-0.066c-0.017,-0.011 -0.035,-0.017 -0.055,-0.017c-0.021,-0 -0.037,0.005 -0.05,0.015c-0.014,0.01 -0.02,0.022 -0.02,0.037c-0,0.015 0.005,0.028 0.015,0.039c0.01,0.011 0.023,0.017 0.039,0.017Z" style="fill:#080818;fill-rule:nonzero;"/></g><g transform="matrix(1,0,0,1,4.074,1.8245)"><path d="M0.268,-0.46l0.017,-0.006l-0.034,0.466l-0.189,-0l-0.032,-0.466c0.038,0.015 0.079,0.023 0.122,0.023c0.043,0 0.081,-0.006 0.116,-0.017Zm-0.111,-0.027c-0.033,0 -0.061,-0.01 -0.084,-0.03c-0.023,-0.02 -0.034,-0.046 -0.034,-0.079c-0,-0.032 0.011,-0.058 0.033,-0.078c0.023,-0.019 0.051,-0.029 0.084,-0.029c0.034,0 0.062,0.01 0.085,0.03c0.023,0.02 0.034,0.046 0.034,0.078c0,0.032 -0.011,0.058 -0.034,0.078c-0.023,0.02 -0.051,0.03 -0.084,0.03Z" style="fill:#080818;fill-rule:nonzero;"/></g><g transform="matrix(1,0,0,1,4.389,1.8245)"><path d="M0.268,-0.649l-0.027,0.649l-0.184,-0l-0.027,-0.649l0.238,0Z" style="fill:#080818;fill-rule:nonzero;"/></g><g transform="matrix(1,0,0,1,4.687,1.8245)"><path d="M0.464,-0.15c0,0.038 -0.013,0.07 -0.038,0.095c-0.025,0.025 -0.055,0.042 -0.088,0.051c-0.033,0.009 -0.064,0.014 -0.095,0.014c-0.031,-0 -0.058,-0.002 -0.081,-0.006c-0.023,-0.004 -0.042,-0.009 -0.058,-0.014c-0.029,-0.011 -0.053,-0.022 -0.07,-0.032l-0.009,-0.006l0.044,-0.091c0.04,0.023 0.074,0.034 0.101,0.034c0.027,-0 0.041,-0.011 0.041,-0.034c-0,-0.011 -0.009,-0.023 -0.026,-0.035c-0.017,-0.012 -0.036,-0.023 -0.057,-0.034c-0.02,-0.011 -0.039,-0.027 -0.056,-0.049c-0.017,-0.022 -0.026,-0.047 -0.026,-0.076c-0,-0.051 0.019,-0.09 0.058,-0.116c0.039,-0.026 0.09,-0.039 0.153,-0.039c0.032,0 0.063,0.003 0.094,0.008c0.031,0.005 0.054,0.011 0.069,0.016l0.022,0.009l-0.025,0.101c-0.038,-0.014 -0.07,-0.021 -0.097,-0.021c-0.027,0 -0.04,0.01 -0.04,0.031c-0,0.01 0.006,0.019 0.019,0.028c0.013,0.009 0.028,0.018 0.046,0.027c0.018,0.009 0.036,0.018 0.054,0.029c0.018,0.011 0.033,0.026 0.046,0.045c0.013,0.019 0.019,0.041 0.019,0.065Z" style="fill:#080818;fill-rule:nonzero;"/></g></g></svg>