<?xml version="1.0" encoding="UTF-8" standalone="no"?><!DOCTYPE svg PUBLIC "-//W3C//DTD SVG 1.1//EN" "http://www.w3.org/Graphics/SVG/1.1/DTD/svg11.dtd"><svg width="100%" height="100%" viewBox="0 0 2 1" version="1.1" xmlns="http://www.w3.org/2000/svg" xmlns:xlink="http://www.w3.org/1999/xlink" xml:space="preserve" xmlns:serif="http://www.serif.com/" style="fill-rule:evenodd;clip-rule:evenodd;stroke-linejoin:round;stroke-miterlimit:2;"><path d="M0.341,0.216c-0.109,-0.051 -0.223,-0.046 -0.341,-0c0,-0 0.055,0.248 0.055,0.372c-0,0.124 -0.055,0.372 -0.055,0.372c0.125,-0.038 0.238,-0.036 0.341,-0c0.008,-0.248 0.01,-0.496 0,-0.744Z" style="fill:#917c64;"/><path d="M1.579,0.215c0.109,-0.051 0.223,-0.046 0.341,-0c-0,-0 -0.055,0.248 -0.055,0.372c0,0.124 0.055,0.372 0.055,0.372c-0.125,-0.038 -0.238,-0.036 -0.341,-0c-0.008,-0.248 -0.01,-0.496 -0,-0.744Z" style="fill:#917c64;"/><path d="M0.236,0.81c0.059,0.03 0.098,0.098 0.105,0.149c0.06,-0.102 0.041,-0.311 0,-0.447l-0.105,0.298Z" style="fill:#625246;"/><path d="M1.684,0.81c-0.059,0.03 -0.098,0.098 -0.105,0.149c-0.06,-0.102 -0.041,-0.311 -0,-0.447l0.105,0.298Z" style="fill:#625246;"/><path d="M1.683,0.066c-0.476,-0.086 -0.959,-0.09 -1.448,-0c0.029,0.254 0.045,0.495 0,0.744c0.459,-0.082 0.941,-0.082 1.448,0c-0.052,-0.245 -0.039,-0.493 0,-0.744Z" style="fill:#a49381;"/><g transform="matrix(0.24,0,0,0.24,-0.04185,-0.199912)"><g transform="matrix(1.25,0,0,1.25,1.77313,2.10734)"><path d="M0.358,-0.303c0.031,0 0.055,-0.009 0.073,-0.028c0.018,-0.019 0.027,-0.041 0.027,-0.069c0,-0.026 -0.009,-0.047 -0.026,-0.061c-0.017,-0.013 -0.038,-0.02 -0.065,-0.02l-0.04,0l-0.017,0.178l0.048,0Zm0.113,-0.303c0.071,0 0.129,0.017 0.171,0.051c0.043,0.033 0.065,0.083 0.065,0.149c-0,0.024 -0.005,0.047 -0.015,0.069c-0.01,0.021 -0.022,0.039 -0.036,0.052c-0.029,0.027 -0.056,0.046 -0.081,0.057l-0.015,0.006l0.108,0.222l-0.175,0l-0.194,-0.195l-0.019,0.195l-0.195,0l-0.06,-0.606l0.446,0Z" style="fill:#080818;fill-rule:nonzero;"/></g><g transform="matrix(1.25,0,0,1.25,2.66938,2.10734)"><path d="M0.291,0.01c-0.075,-0 -0.138,-0.022 -0.189,-0.066c-0.051,-0.043 -0.077,-0.107 -0.077,-0.192c0,-0.053 0.013,-0.099 0.039,-0.136c0.047,-0.069 0.121,-0.104 0.22,-0.104c0.076,0 0.134,0.015 0.174,0.045c0.04,0.031 0.06,0.073 0.06,0.126c0,0.041 -0.017,0.075 -0.049,0.101c-0.034,0.025 -0.082,0.038 -0.145,0.038c-0.026,0 -0.049,-0.002 -0.07,-0.006l-0.011,-0.002c0.003,0.024 0.014,0.042 0.031,0.053c0.018,0.012 0.039,0.018 0.064,0.018c0.041,0 0.075,-0.012 0.104,-0.037l0.062,0.075c-0.011,0.013 -0.023,0.025 -0.038,0.035c-0.015,0.011 -0.038,0.023 -0.07,0.034c-0.032,0.012 -0.067,0.018 -0.105,0.018Zm0.081,-0.336c-0,-0.013 -0.005,-0.024 -0.016,-0.033c-0.01,-0.009 -0.024,-0.013 -0.042,-0.013c-0.018,0 -0.035,0.008 -0.051,0.024c-0.015,0.016 -0.023,0.035 -0.023,0.057c0.015,0.007 0.034,0.01 0.057,0.01c0.024,-0 0.042,-0.004 0.055,-0.013c0.013,-0.008 0.02,-0.019 0.02,-0.032Z" style="fill:#080818;fill-rule:nonzero;"/></g><g transform="matrix(1.25,0,0,1.25,3.34813,2.10734)"><path d="M0.464,-0.15c0,0.038 -0.013,0.07 -0.038,0.095c-0.025,0.025 -0.055,0.042 -0.088,0.051c-0.033,0.009 -0.064,0.014 -0.095,0.014c-0.031,-0 -0.058,-0.002 -0.081,-0.006c-0.023,-0.004 -0.042,-0.009 -0.058,-0.014c-0.029,-0.011 -0.053,-0.022 -0.07,-0.032l-0.009,-0.006l0.044,-0.091c0.04,0.023 0.074,0.034 0.101,0.034c0.027,-0 0.041,-0.011 0.041,-0.034c-0,-0.011 -0.009,-0.023 -0.026,-0.035c-0.017,-0.012 -0.036,-0.023 -0.057,-0.034c-0.02,-0.011 -0.039,-0.027 -0.056,-0.049c-0.017,-0.022 -0.026,-0.047 -0.026,-0.076c-0,-0.051 0.019,-0.09 0.058,-0.116c0.039,-0.026 0.09,-0.039 0.153,-0.039c0.032,0 0.063,0.003 0.094,0.008c0.031,0.005 0.054,0.011 0.069,0.016l0.022,0.009l-0.025,0.101c-0.038,-0.014 -0.07,-0.021 -0.097,-0.021c-0.027,0 -0.04,0.01 -0.04,0.031c-0,0.01 0.006,0.019 0.019,0.028c0.013,0.009 0.028,0.018 0.046,0.027c0.018,0.009 0.036,0.018 0.054,0.029c0.018,0.011 0.033,0.026 0.046,0.045c0.013,0.019 0.019,0.041 0.019,0.065Z" style="fill:#080818;fill-rule:nonzero;"/></g><g transform="matrix(1.25,0,0,1.25,3.95938,2.10734)"><path d="M0.219,0.01c-0.126,-0 -0.189,-0.086 -0.189,-0.257c0,-0.046 0.008,-0.122 0.023,-0.227l0.194,0l0,0.216c0,0.077 0.022,0.116 0.065,0.116c0.038,0 0.057,-0.035 0.057,-0.104l0,-0.017l-0.009,-0.211l0.225,0l-0.021,0.474l-0.169,-0l-0.011,-0.092c-0.001,0.003 -0.003,0.006 -0.005,0.011c-0.002,0.005 -0.007,0.013 -0.016,0.024c-0.009,0.012 -0.02,0.022 -0.031,0.031c-0.011,0.009 -0.027,0.018 -0.047,0.025c-0.02,0.007 -0.042,0.011 -0.066,0.011Z" style="fill:#080818;fill-rule:nonzero;"/></g><g transform="matrix(1.25,0,0,1.25,4.72813,2.10734)"><path d="M0.751,-0.488c0.054,0 0.094,0.021 0.12,0.064c0.026,0.043 0.039,0.094 0.039,0.153c0,0.06 -0.008,0.15 -0.023,0.271l-0.175,-0l-0.022,-0.232c-0.004,-0.04 -0.009,-0.067 -0.016,-0.08c-0.007,-0.013 -0.018,-0.02 -0.034,-0.02c-0.038,0 -0.059,0.034 -0.064,0.101l-0.017,0.231l-0.178,-0l-0.022,-0.232c-0.004,-0.04 -0.009,-0.067 -0.016,-0.08c-0.007,-0.013 -0.018,-0.02 -0.034,-0.02c-0.039,0 -0.061,0.034 -0.064,0.101l-0.01,0.231l-0.184,-0l-0.021,-0.474l0.226,0l-0.004,0.095c0.001,-0.003 0.003,-0.007 0.006,-0.012c0.002,-0.005 0.008,-0.013 0.018,-0.026c0.009,-0.013 0.02,-0.024 0.032,-0.033c0.012,-0.009 0.029,-0.018 0.05,-0.026c0.021,-0.008 0.043,-0.012 0.067,-0.012c0.039,0 0.07,0.012 0.095,0.037c0.024,0.025 0.04,0.052 0.047,0.082c0.01,-0.017 0.019,-0.03 0.026,-0.04c0.007,-0.01 0.018,-0.022 0.033,-0.036c0.03,-0.029 0.072,-0.043 0.126,-0.043Z" style="fill:#080818;fill-rule:nonzero;"/></g><g transform="matrix(1.25,0,0,1.25,5.90313,2.10734)"><path d="M0.338,-0.115c0.041,0 0.075,-0.012 0.104,-0.037l0.062,0.075c-0.011,0.013 -0.023,0.025 -0.038,0.035c-0.015,0.011 -0.038,0.023 -0.07,0.034c-0.032,0.012 -0.067,0.018 -0.105,0.018c-0.075,-0 -0.139,-0.022 -0.19,-0.066c-0.051,-0.043 -0.076,-0.107 -0.076,-0.192c-0,-0.053 0.013,-0.099 0.039,-0.136c0.047,-0.069 0.121,-0.104 0.22,-0.104c0.076,0 0.134,0.015 0.174,0.045c0.04,0.031 0.06,0.073 0.06,0.126c0,0.041 -0.017,0.075 -0.049,0.101c-0.034,0.025 -0.082,0.038 -0.145,0.038c-0.029,0 -0.056,-0.003 -0.081,-0.008c0.003,0.024 0.014,0.042 0.031,0.053c0.018,0.012 0.039,0.018 0.064,0.018Zm-0.039,-0.166c0.023,0 0.04,-0.004 0.053,-0.012c0.013,-0.009 0.02,-0.02 0.02,-0.033c-0,-0.013 -0.005,-0.024 -0.016,-0.033c-0.01,-0.009 -0.024,-0.013 -0.042,-0.013c-0.018,0 -0.035,0.008 -0.051,0.024c-0.015,0.016 -0.023,0.035 -0.023,0.057c0.017,0.007 0.037,0.01 0.059,0.01Zm0.004,-0.356c0.015,-0.025 0.034,-0.037 0.055,-0.037c0.022,0 0.039,0.006 0.052,0.019c0.013,0.012 0.019,0.029 0.019,0.049c-0,0.021 -0.012,0.039 -0.036,0.053l-0.058,0.034l-0.104,-0l0.072,-0.118Z" style="fill:#080818;fill-rule:nonzero;"/></g><g transform="matrix(1.25,0,0,1.25,1.66813,3.35734)"><path d="M0.338,-0.62c0.039,0 0.08,0.007 0.126,0.021c0.044,0.014 0.081,0.032 0.11,0.053l-0.042,0.089c-0.029,-0.011 -0.062,-0.017 -0.097,-0.017c-0.099,0 -0.148,0.057 -0.148,0.172c-0,0.055 0.013,0.098 0.04,0.129c0.027,0.031 0.06,0.047 0.098,0.047c0.039,-0 0.075,-0.008 0.108,-0.024l0.045,0.086c-0.067,0.049 -0.148,0.074 -0.241,0.074c-0.093,-0 -0.17,-0.027 -0.229,-0.082c-0.059,-0.055 -0.088,-0.133 -0.088,-0.236c-0,-0.102 0.029,-0.18 0.087,-0.233c0.058,-0.053 0.135,-0.079 0.231,-0.079Z" style="fill:#080818;fill-rule:nonzero;"/></g><g transform="matrix(1.25,0,0,1.25,2.40313,3.35734)"><path d="M0.098,-0.05c-0.049,-0.039 -0.073,-0.102 -0.073,-0.189c-0,-0.087 0.024,-0.15 0.073,-0.19c0.048,-0.039 0.112,-0.059 0.193,-0.059c0.081,0 0.145,0.02 0.193,0.059c0.049,0.04 0.073,0.103 0.073,0.19c0,0.087 -0.024,0.15 -0.073,0.19c-0.048,0.039 -0.112,0.059 -0.193,0.059c-0.081,-0 -0.145,-0.02 -0.194,-0.06Zm0.152,-0.303c-0.008,0.023 -0.012,0.061 -0.012,0.114c-0,0.053 0.004,0.091 0.012,0.113c0.008,0.024 0.022,0.035 0.042,0.035c0.02,0 0.034,-0.011 0.042,-0.035c0.008,-0.022 0.012,-0.06 0.012,-0.113c-0,-0.053 -0.004,-0.091 -0.012,-0.113c-0.008,-0.024 -0.022,-0.035 -0.042,-0.035c-0.02,0 -0.034,0.012 -0.042,0.035Z" style="fill:#080818;fill-rule:nonzero;"/></g><g transform="matrix(1.25,0,0,1.25,3.13063,3.35734)"><path d="M0.408,-0.488c0.047,0 0.087,0.02 0.12,0.059c0.034,0.039 0.051,0.09 0.051,0.153c-0,0.064 -0.008,0.155 -0.023,0.276l-0.175,-0l-0.02,-0.224c-0.007,-0.071 -0.026,-0.107 -0.058,-0.107c-0.038,0 -0.058,0.036 -0.061,0.108l-0.007,0.223l-0.184,0l-0.021,-0.474l0.226,0l-0.004,0.085c0.003,-0.007 0.011,-0.017 0.023,-0.031c0.012,-0.014 0.024,-0.025 0.035,-0.034c0.029,-0.023 0.062,-0.034 0.098,-0.034Z" style="fill:#080818;fill-rule:nonzero;"/></g><g transform="matrix(1.25,0,0,1.25,3.89188,3.35734)"><path d="M0.295,-0.178c-0.001,0.039 0.013,0.058 0.041,0.058c0.008,0 0.018,-0.004 0.029,-0.011l0.021,0.097c-0.004,0.003 -0.01,0.008 -0.017,0.013c-0.007,0.005 -0.022,0.011 -0.044,0.019c-0.024,0.008 -0.047,0.012 -0.072,0.012c-0.045,-0 -0.082,-0.015 -0.111,-0.047c-0.029,-0.031 -0.044,-0.07 -0.046,-0.118l-0.009,-0.189l-0.077,0l0.012,-0.13l0.06,0l-0.004,-0.098l0.237,-0.048l-0.007,0.146l0.058,0l0.012,0.13l-0.076,0l-0.007,0.166Z" style="fill:#080818;fill-rule:nonzero;"/></g><g transform="matrix(1.25,0,0,1.25,4.41188,3.35734)"><path d="M0.252,-0.409c0.035,-0.053 0.079,-0.079 0.131,-0.079c0.025,0 0.047,0.006 0.068,0.018l-0.024,0.164c-0.027,-0.019 -0.057,-0.028 -0.09,-0.028c-0.032,0 -0.054,0.013 -0.065,0.04c-0.007,0.017 -0.011,0.033 -0.013,0.048l-0.019,0.246l-0.18,0l-0.03,-0.474l0.197,0l0.025,0.065Z" style="fill:#080818;fill-rule:nonzero;"/></g><g transform="matrix(1.25,0,0,1.25,4.97563,3.35734)"><path d="M0.098,-0.05c-0.049,-0.039 -0.073,-0.102 -0.073,-0.189c-0,-0.087 0.024,-0.15 0.073,-0.19c0.048,-0.039 0.112,-0.059 0.193,-0.059c0.081,0 0.145,0.02 0.193,0.059c0.049,0.04 0.073,0.103 0.073,0.19c0,0.087 -0.024,0.15 -0.073,0.19c-0.048,0.039 -0.112,0.059 -0.193,0.059c-0.081,-0 -0.145,-0.02 -0.194,-0.06Zm0.152,-0.303c-0.008,0.023 -0.012,0.061 -0.012,0.114c-0,0.053 0.004,0.091 0.012,0.113c0.008,0.024 0.022,0.035 0.042,0.035c0.02,0 0.034,-0.011 0.042,-0.035c0.008,-0.022 0.012,-0.06 0.012,-0.113c-0,-0.053 -0.004,-0.091 -0.012,-0.113c-0.008,-0.024 -0.022,-0.035 -0.042,-0.035c-0.02,0 -0.034,0.012 -0.042,0.035Z" style="fill:#080818;fill-rule:nonzero;"/></g><g transform="matrix(1.25,0,0,1.25,5.70313,3.35734)"><path d="M0.268,-0.649l-0.027,0.649l-0.184,-0l-0.027,-0.649l0.238,0Z" style="fill:#080818;fill-rule:nonzero;"/></g><g transform="matrix(1.25,0,0,1.25,6.07563,3.35734)"><path d="M0.464,-0.15c0,0.038 -0.013,0.07 -0.038,0.095c-0.025,0.025 -0.055,0.042 -0.088,0.051c-0.033,0.009 -0.064,0.014 -0.095,0.014c-0.031,-0 -0.058,-0.002 -0.081,-0.006c-0.023,-0.004 -0.042,-0.009 -0.058,-0.014c-0.029,-0.011 -0.053,-0.022 -0.07,-0.032l-0.009,-0.006l0.044,-0.091c0.04,0.023 0.074,0.034 0.101,0.034c0.027,-0 0.041,-0.011 0.041,-0.034c-0,-0.011 -0.009,-0.023 -0.026,-0.035c-0.017,-0.012 -0.036,-0.023 -0.057,-0.034c-0.02,-0.011 -0.039,-0.027 -0.056,-0.049c-0.017,-0.022 -0.026,-0.047 -0.026,-0.076c-0,-0.051 0.019,-0.09 0.058,-0.116c0.039,-0.026 0.09,-0.039 0.153,-0.039c0.032,0 0.063,0.003 0.094,0.008c0.031,0.005 0.054,0.011 0.069,0.016l0.022,0.009l-0.025,0.101c-0.038,-0.014 -0.07,-0.021 -0.097,-0.021c-0.027,0 -0.04,0.01 -0.04,0.031c-0,0.01 0.006,0.019 0.019,0.028c0.013,0.009 0.028,0.018 0.046,0.027c0.018,0.009 0.036,0.018 0.054,0.029c0.018,0.011 0.033,0.026 0.046,0.045c0.013,0.019 0.019,0.041 0.019,0.065Z" style="fill:#080818;fill-rule:nonzero;"/></g></g><path d="M-0.509,-0.186c0.011,-0 0.02,-0.006 0.026,-0.018c0.006,-0.012 0.009,-0.024 0.009,-0.037c-0,-0.013 -0.003,-0.023 -0.007,-0.031c-0.005,-0.007 -0.011,-0.011 -0.018,-0.011l-0.002,-0l-0.009,0.097l0.001,-0Zm-0.001,0.024l-0.047,-0l-0.014,-0.146l0.07,0c0.036,0 0.061,0.01 0.074,0.03c0.007,0.01 0.011,0.022 0.011,0.037c-0,0.052 -0.032,0.079 -0.094,0.079Z" style="fill:#080818;fill-rule:nonzero;"/><path d="M-0.363,-0.16c-0.013,0 -0.023,-0.003 -0.031,-0.011c-0.008,-0.007 -0.012,-0.017 -0.012,-0.03c0,-0.013 0.005,-0.023 0.014,-0.029c0.009,-0.006 0.02,-0.009 0.032,-0.009c0.013,0 0.024,0.002 0.033,0.006c-0.002,-0.013 -0.01,-0.02 -0.025,-0.02c-0.007,0 -0.015,0.002 -0.025,0.004l-0.006,-0.021c0.014,-0.006 0.029,-0.009 0.044,-0.009c0.043,-0 0.064,0.018 0.064,0.054c0,0.013 -0.001,0.03 -0.004,0.052l-0.001,0.011l-0.04,-0l-0.001,-0.013c-0.011,0.01 -0.025,0.015 -0.042,0.015Zm0.021,-0.029c0.007,-0 0.014,-0.002 0.019,-0.006l-0.002,-0.016c-0.004,-0.003 -0.008,-0.004 -0.013,-0.004c-0.005,-0 -0.009,0.001 -0.012,0.003c-0.003,0.003 -0.005,0.006 -0.005,0.009c0,0.004 0.002,0.007 0.004,0.009c0.002,0.003 0.005,0.005 0.009,0.005Z" style="fill:#080818;fill-rule:nonzero;"/><path d="M-0.197,-0.205c0,0.009 0.003,0.014 0.01,0.014c0.002,0 0.004,-0.001 0.007,-0.003l0.005,0.024c-0.001,0.001 -0.002,0.002 -0.004,0.003c-0.002,0.001 -0.005,0.002 -0.011,0.004c-0.005,0.002 -0.011,0.003 -0.017,0.003c-0.011,0 -0.02,-0.003 -0.026,-0.011c-0.007,-0.007 -0.011,-0.017 -0.012,-0.028l-0.002,-0.046l-0.018,0l0.003,-0.031l0.014,0l-0.001,-0.023l0.057,-0.012l-0.002,0.035l0.014,0l0.003,0.031l-0.018,0l-0.002,0.04Z" style="fill:#080818;fill-rule:nonzero;"/><path d="M-0.119,-0.16c-0.013,0 -0.023,-0.003 -0.031,-0.011c-0.008,-0.007 -0.012,-0.017 -0.012,-0.03c0,-0.013 0.005,-0.023 0.014,-0.029c0.009,-0.006 0.019,-0.009 0.032,-0.009c0.013,0 0.024,0.002 0.033,0.006c-0.002,-0.013 -0.01,-0.02 -0.025,-0.02c-0.007,0 -0.015,0.002 -0.025,0.004l-0.006,-0.021c0.014,-0.006 0.029,-0.009 0.044,-0.009c0.043,-0 0.064,0.018 0.064,0.054c0,0.013 -0.001,0.03 -0.004,0.052l-0.001,0.011l-0.04,-0l-0.001,-0.013c-0.011,0.01 -0.025,0.015 -0.042,0.015Zm0.021,-0.029c0.007,-0 0.013,-0.002 0.019,-0.006l-0.002,-0.016c-0.004,-0.003 -0.008,-0.004 -0.013,-0.004c-0.005,-0 -0.009,0.001 -0.012,0.003c-0.003,0.003 -0.005,0.006 -0.005,0.009c0,0.004 0.001,0.007 0.004,0.009c0.002,0.003 0.005,0.005 0.009,0.005Z" style="fill:#080818;fill-rule:nonzero;"/></svg>