<?xml version="1.0" encoding="UTF-8" standalone="no"?><!DOCTYPE svg PUBLIC "-//W3C//DTD SVG 1.1//EN" "http://www.w3.org/Graphics/SVG/1.1/DTD/svg11.dtd"><svg width="100%" height="100%" viewBox="0 0 2 1" version="1.1" xmlns="http://www.w3.org/2000/svg" xmlns:xlink="http://www.w3.org/1999/xlink" xml:space="preserve" xmlns:serif="http://www.serif.com/" style="fill-rule:evenodd;clip-rule:evenodd;stroke-linejoin:round;stroke-miterlimit:2;"><path d="M0.341,0.216c-0.109,-0.051 -0.223,-0.046 -0.341,-0c0,-0 0.055,0.248 0.055,0.372c-0,0.124 -0.055,0.372 -0.055,0.372c0.125,-0.038 0.238,-0.036 0.341,-0c0.008,-0.248 0.01,-0.496 0,-0.744Z" style="fill:#917c64;"/><path d="M1.579,0.215c0.109,-0.051 0.223,-0.046 0.341,-0c-0,-0 -0.055,0.248 -0.055,0.372c0,0.124 0.055,0.372 0.055,0.372c-0.125,-0.038 -0.238,-0.036 -0.341,-0c-0.008,-0.248 -0.01,-0.496 -0,-0.744Z" style="fill:#917c64;"/><path d="M0.236,0.81c0.059,0.03 0.098,0.098 0.105,0.149c0.06,-0.102 0.041,-0.311 0,-0.447l-0.105,0.298Z" style="fill:#625246;"/><path d="M1.684,0.81c-0.059,0.03 -0.098,0.098 -0.105,0.149c-0.06,-0.102 -0.041,-0.311 -0,-0.447l0.105,0.298Z" style="fill:#625246;"/><path d="M1.683,0.066c-0.476,-0.086 -0.959,-0.09 -1.448,-0c0.029,0.254 0.045,0.495 0,0.744c0.459,-0.082 0.941,-0.082 1.448,0c-0.052,-0.245 -0.039,-0.493 0,-0.744Z" style="fill:#a49381;"/><path d="M0.495,0.372c0.009,0 0.016,-0.002 0.021,-0.008c0.005,-0.005 0.008,-0.011 0.008,-0.019c-0,-0.008 -0.002,-0.014 -0.007,-0.017c-0.005,-0.004 -0.011,-0.006 -0.019,-0.006l-0.011,-0l-0.005,0.05l0.013,0Zm0.018,0.037l-0.035,-0l-0.005,0.05l-0.055,-0l-0.017,-0.173l0.127,0c0.02,0 0.036,0.005 0.048,0.015c0.013,0.01 0.019,0.025 0.019,0.044c-0,0.012 -0.002,0.022 -0.007,0.03c-0.005,0.009 -0.011,0.015 -0.019,0.02c-0.015,0.009 -0.034,0.014 -0.056,0.014Z" style="fill:#080818;fill-rule:nonzero;"/><path d="M0.668,0.342c0.01,-0.015 0.023,-0.022 0.037,-0.022c0.008,-0 0.014,0.001 0.02,0.005l-0.007,0.047c-0.008,-0.006 -0.016,-0.008 -0.026,-0.008c-0.009,-0 -0.015,0.003 -0.018,0.011c-0.002,0.005 -0.003,0.009 -0.004,0.014l-0.005,0.07l-0.052,-0l-0.008,-0.135l0.056,-0l0.007,0.018Z" style="fill:#080818;fill-rule:nonzero;"/><path d="M0.808,0.462c-0.022,-0 -0.04,-0.007 -0.054,-0.019c-0.015,-0.013 -0.022,-0.031 -0.022,-0.055c0,-0.015 0.004,-0.028 0.011,-0.039c0.014,-0.019 0.035,-0.029 0.063,-0.029c0.021,-0 0.038,0.004 0.049,0.013c0.012,0.008 0.018,0.02 0.018,0.035c-0,0.012 -0.005,0.022 -0.015,0.029c-0.009,0.007 -0.023,0.011 -0.041,0.011c-0.007,0 -0.014,-0.001 -0.02,-0.002l-0.003,-0c0.001,0.007 0.004,0.012 0.009,0.015c0.005,0.003 0.011,0.005 0.018,0.005c0.012,-0 0.022,-0.004 0.03,-0.011l0.018,0.022c-0.004,0.003 -0.007,0.007 -0.011,0.01c-0.004,0.003 -0.011,0.006 -0.02,0.01c-0.009,0.003 -0.019,0.005 -0.03,0.005Zm0.023,-0.096c-0,-0.004 -0.002,-0.007 -0.005,-0.01c-0.002,-0.002 -0.007,-0.003 -0.012,-0.003c-0.005,-0 -0.01,0.002 -0.014,0.007c-0.004,0.004 -0.007,0.01 -0.007,0.016c0.004,0.002 0.01,0.003 0.017,0.003c0.006,-0 0.012,-0.002 0.015,-0.004c0.004,-0.002 0.006,-0.005 0.006,-0.009Z" style="fill:#080818;fill-rule:nonzero;"/><path d="M0.96,0.411c0.016,-0.021 0.025,-0.051 0.025,-0.087l0.045,-0c0,0.026 -0.003,0.048 -0.01,0.068c-0.007,0.018 -0.015,0.033 -0.023,0.043c-0.008,0.011 -0.014,0.018 -0.018,0.021l-0.003,0.003l-0.057,-0l-0.042,-0.135l0.071,-0l0.012,0.087Z" style="fill:#080818;fill-rule:nonzero;"/><path d="M1.112,0.328l0.005,-0.002l-0.009,0.133l-0.054,-0l-0.009,-0.133c0.01,0.004 0.022,0.006 0.034,0.006c0.013,0 0.024,-0.001 0.033,-0.004Zm-0.031,-0.008c-0.01,-0 -0.018,-0.003 -0.024,-0.009c-0.007,-0.005 -0.01,-0.013 -0.01,-0.022c0,-0.009 0.003,-0.017 0.01,-0.022c0.006,-0.006 0.014,-0.009 0.024,-0.009c0.009,0 0.017,0.003 0.024,0.009c0.006,0.006 0.009,0.013 0.009,0.022c0,0.009 -0.003,0.017 -0.009,0.022c-0.007,0.006 -0.015,0.009 -0.024,0.009Z" style="fill:#080818;fill-rule:nonzero;"/><path d="M1.209,0.462c-0.022,-0 -0.04,-0.007 -0.054,-0.019c-0.015,-0.013 -0.022,-0.031 -0.022,-0.055c-0,-0.015 0.004,-0.028 0.011,-0.039c0.014,-0.019 0.035,-0.029 0.063,-0.029c0.021,-0 0.038,0.004 0.049,0.013c0.012,0.008 0.018,0.02 0.018,0.035c-0,0.012 -0.005,0.022 -0.015,0.029c-0.009,0.007 -0.023,0.011 -0.041,0.011c-0.007,0 -0.014,-0.001 -0.02,-0.002l-0.003,-0c0.001,0.007 0.004,0.012 0.009,0.015c0.005,0.003 0.011,0.005 0.018,0.005c0.012,-0 0.022,-0.004 0.03,-0.011l0.018,0.022c-0.004,0.003 -0.007,0.007 -0.011,0.01c-0.004,0.003 -0.011,0.006 -0.02,0.01c-0.009,0.003 -0.019,0.005 -0.03,0.005Zm0.023,-0.096c-0,-0.004 -0.002,-0.007 -0.005,-0.01c-0.002,-0.002 -0.007,-0.003 -0.012,-0.003c-0.005,-0 -0.01,0.002 -0.014,0.007c-0.004,0.004 -0.007,0.01 -0.007,0.016c0.004,0.002 0.01,0.003 0.017,0.003c0.006,-0 0.012,-0.002 0.015,-0.004c0.004,-0.002 0.006,-0.005 0.006,-0.009Z" style="fill:#080818;fill-rule:nonzero;"/><path d="M1.478,0.324l0.041,-0c0,0.017 -0.001,0.034 -0.005,0.05c-0.003,0.016 -0.007,0.028 -0.012,0.038c-0.01,0.021 -0.019,0.035 -0.026,0.042l-0.006,0.005l-0.057,-0l-0.014,-0.046c-0.004,0.009 -0.009,0.018 -0.014,0.025c-0.005,0.008 -0.009,0.013 -0.013,0.016l-0.004,0.005l-0.049,-0l-0.041,-0.135l0.07,-0l0.013,0.085c0.001,-0.001 0.002,-0.003 0.004,-0.005c0.002,-0.003 0.005,-0.008 0.009,-0.017c0.004,-0.01 0.007,-0.019 0.009,-0.03l-0.011,-0.033l0.07,-0l0.011,0.085c0.006,-0.006 0.011,-0.015 0.016,-0.029c0.006,-0.015 0.009,-0.034 0.009,-0.056Z" style="fill:#080818;fill-rule:nonzero;"/><path d="M-0.509,-0.186c0.011,-0 0.02,-0.006 0.026,-0.018c0.006,-0.012 0.009,-0.024 0.009,-0.037c-0,-0.013 -0.003,-0.023 -0.007,-0.031c-0.005,-0.007 -0.011,-0.011 -0.018,-0.011l-0.002,-0l-0.009,0.097l0.001,-0Zm-0.001,0.024l-0.047,-0l-0.014,-0.146l0.07,0c0.036,0 0.061,0.01 0.074,0.03c0.007,0.01 0.011,0.022 0.011,0.037c-0,0.052 -0.032,0.079 -0.094,0.079Z" style="fill:#080818;fill-rule:nonzero;"/><path d="M-0.363,-0.16c-0.013,0 -0.023,-0.003 -0.031,-0.011c-0.008,-0.007 -0.012,-0.017 -0.012,-0.03c0,-0.013 0.005,-0.023 0.014,-0.029c0.009,-0.006 0.02,-0.009 0.032,-0.009c0.013,0 0.024,0.002 0.033,0.006c-0.002,-0.013 -0.01,-0.02 -0.025,-0.02c-0.007,0 -0.015,0.002 -0.025,0.004l-0.006,-0.021c0.014,-0.006 0.029,-0.009 0.044,-0.009c0.043,-0 0.064,0.018 0.064,0.054c0,0.013 -0.001,0.03 -0.004,0.052l-0.001,0.011l-0.04,-0l-0.001,-0.013c-0.011,0.01 -0.025,0.015 -0.042,0.015Zm0.021,-0.029c0.007,-0 0.014,-0.002 0.019,-0.006l-0.002,-0.016c-0.004,-0.003 -0.008,-0.004 -0.013,-0.004c-0.005,-0 -0.009,0.001 -0.012,0.003c-0.003,0.003 -0.005,0.006 -0.005,0.009c0,0.004 0.002,0.007 0.004,0.009c0.002,0.003 0.005,0.005 0.009,0.005Z" style="fill:#080818;fill-rule:nonzero;"/><path d="M-0.197,-0.205c0,0.009 0.003,0.014 0.01,0.014c0.002,0 0.004,-0.001 0.007,-0.003l0.005,0.024c-0.001,0.001 -0.002,0.002 -0.004,0.003c-0.002,0.001 -0.005,0.002 -0.011,0.004c-0.005,0.002 -0.011,0.003 -0.017,0.003c-0.011,0 -0.02,-0.003 -0.026,-0.011c-0.007,-0.007 -0.011,-0.017 -0.012,-0.028l-0.002,-0.046l-0.018,0l0.003,-0.031l0.014,0l-0.001,-0.023l0.057,-0.012l-0.002,0.035l0.014,0l0.003,0.031l-0.018,0l-0.002,0.04Z" style="fill:#080818;fill-rule:nonzero;"/><path d="M-0.119,-0.16c-0.013,0 -0.023,-0.003 -0.031,-0.011c-0.008,-0.007 -0.012,-0.017 -0.012,-0.03c0,-0.013 0.005,-0.023 0.014,-0.029c0.009,-0.006 0.019,-0.009 0.032,-0.009c0.013,0 0.024,0.002 0.033,0.006c-0.002,-0.013 -0.01,-0.02 -0.025,-0.02c-0.007,0 -0.015,0.002 -0.025,0.004l-0.006,-0.021c0.014,-0.006 0.029,-0.009 0.044,-0.009c0.043,-0 0.064,0.018 0.064,0.054c0,0.013 -0.001,0.03 -0.004,0.052l-0.001,0.011l-0.04,-0l-0.001,-0.013c-0.011,0.01 -0.025,0.015 -0.042,0.015Zm0.021,-0.029c0.007,-0 0.013,-0.002 0.019,-0.006l-0.002,-0.016c-0.004,-0.003 -0.008,-0.004 -0.013,-0.004c-0.005,-0 -0.009,0.001 -0.012,0.003c-0.003,0.003 -0.005,0.006 -0.005,0.009c0,0.004 0.001,0.007 0.004,0.009c0.002,0.003 0.005,0.005 0.009,0.005Z" style="fill:#080818;fill-rule:nonzero;"/></svg>