<?xml version="1.0" encoding="UTF-8" standalone="no"?><!DOCTYPE svg PUBLIC "-//W3C//DTD SVG 1.1//EN" "http://www.w3.org/Graphics/SVG/1.1/DTD/svg11.dtd"><svg width="100%" height="100%" viewBox="0 0 2 1" version="1.1" xmlns="http://www.w3.org/2000/svg" xmlns:xlink="http://www.w3.org/1999/xlink" xml:space="preserve" xmlns:serif="http://www.serif.com/" style="fill-rule:evenodd;clip-rule:evenodd;stroke-linejoin:round;stroke-miterlimit:2;"><path d="M0.341,0.216c-0.109,-0.051 -0.223,-0.046 -0.341,-0c0,-0 0.055,0.248 0.055,0.372c-0,0.124 -0.055,0.372 -0.055,0.372c0.125,-0.038 0.238,-0.036 0.341,-0c0.008,-0.248 0.01,-0.496 0,-0.744Z" style="fill:#917c64;"/><path d="M1.579,0.215c0.109,-0.051 0.223,-0.046 0.341,-0c-0,-0 -0.055,0.248 -0.055,0.372c0,0.124 0.055,0.372 0.055,0.372c-0.125,-0.038 -0.238,-0.036 -0.341,-0c-0.008,-0.248 -0.01,-0.496 -0,-0.744Z" style="fill:#917c64;"/><path d="M0.236,0.81c0.059,0.03 0.098,0.098 0.105,0.149c0.06,-0.102 0.041,-0.311 0,-0.447l-0.105,0.298Z" style="fill:#625246;"/><path d="M1.684,0.81c-0.059,0.03 -0.098,0.098 -0.105,0.149c-0.06,-0.102 -0.041,-0.311 -0,-0.447l0.105,0.298Z" style="fill:#625246;"/><path d="M1.683,0.066c-0.476,-0.086 -0.959,-0.09 -1.448,-0c0.029,0.254 0.045,0.495 0,0.744c0.459,-0.082 0.941,-0.082 1.448,0c-0.052,-0.245 -0.039,-0.493 0,-0.744Z" style="fill:#a49381;"/><path d="M0.325,0.366c-0,-0.025 0.007,-0.044 0.022,-0.057c0.014,-0.013 0.035,-0.02 0.062,-0.02c0.028,0 0.049,0.007 0.063,0.02c0.015,0.013 0.022,0.032 0.022,0.057c0,0.025 -0.007,0.044 -0.023,0.056c-0.015,0.012 -0.036,0.018 -0.062,0.018c-0.025,0 -0.046,-0.006 -0.061,-0.018c-0.016,-0.012 -0.023,-0.031 -0.023,-0.056Zm0.105,-0.001c0,-0.032 -0.007,-0.048 -0.021,-0.048c-0.014,-0 -0.021,0.016 -0.021,0.048c0,0.032 0.007,0.049 0.021,0.049c0.014,-0 0.021,-0.017 0.021,-0.049Z" style="fill:#080818;fill-rule:nonzero;"/><path d="M0.57,0.395c-0,0.009 0.003,0.014 0.01,0.014c0.002,0 0.004,-0.001 0.007,-0.003l0.005,0.024c-0.001,0.001 -0.003,0.002 -0.004,0.003c-0.002,0.001 -0.006,0.002 -0.011,0.004c-0.006,0.002 -0.011,0.003 -0.017,0.003c-0.011,0 -0.02,-0.003 -0.027,-0.011c-0.007,-0.007 -0.01,-0.017 -0.011,-0.028l-0.002,-0.046l-0.019,0l0.003,-0.031l0.015,0l-0.001,-0.023l0.057,-0.012l-0.002,0.035l0.014,0l0.003,0.031l-0.018,0l-0.002,0.04Z" style="fill:#080818;fill-rule:nonzero;"/><path d="M0.702,0.321c0.009,-0 0.017,0.002 0.023,0.008c0.005,0.005 0.009,0.012 0.011,0.019c0.002,0.008 0.003,0.017 0.003,0.029c0,0.012 -0.002,0.032 -0.005,0.061l-0.042,-0l-0.005,-0.056c-0.001,-0.009 -0.003,-0.016 -0.004,-0.019c-0.002,-0.003 -0.005,-0.005 -0.008,-0.005c-0.01,0 -0.015,0.008 -0.016,0.024l-0.002,0.056l-0.044,-0l-0.007,-0.156l0.057,0l-0.002,0.063c0.005,-0.011 0.013,-0.018 0.025,-0.022c0.005,-0.001 0.011,-0.002 0.016,-0.002Z" style="fill:#080818;fill-rule:nonzero;"/><path d="M0.816,0.44c-0.018,0 -0.033,-0.005 -0.045,-0.015c-0.012,-0.011 -0.018,-0.026 -0.018,-0.047c-0,-0.012 0.003,-0.023 0.009,-0.032c0.011,-0.017 0.029,-0.025 0.053,-0.025c0.018,-0 0.032,0.003 0.041,0.011c0.01,0.007 0.015,0.017 0.015,0.03c-0,0.01 -0.004,0.018 -0.012,0.024c-0.008,0.006 -0.02,0.009 -0.035,0.009c-0.006,0 -0.012,-0 -0.017,-0.001l-0.002,-0.001c0.001,0.006 0.003,0.01 0.007,0.013c0.005,0.003 0.01,0.004 0.016,0.004c0.009,0 0.018,-0.003 0.025,-0.009l0.014,0.018c-0.002,0.003 -0.005,0.006 -0.009,0.009c-0.003,0.003 -0.009,0.005 -0.016,0.008c-0.008,0.003 -0.017,0.004 -0.026,0.004Zm0.02,-0.08c-0,-0.004 -0.001,-0.006 -0.004,-0.008c-0.002,-0.002 -0.006,-0.003 -0.01,-0.003c-0.004,-0 -0.008,0.002 -0.012,0.005c-0.004,0.004 -0.006,0.009 -0.006,0.014c0.004,0.002 0.008,0.002 0.014,0.002c0.006,0 0.01,-0.001 0.013,-0.003c0.003,-0.002 0.005,-0.004 0.005,-0.007Z" style="fill:#080818;fill-rule:nonzero;"/><path d="M0.937,0.34c0.009,-0.013 0.019,-0.019 0.032,-0.019c0.006,-0 0.011,0.001 0.016,0.004l-0.006,0.039c-0.006,-0.004 -0.013,-0.006 -0.021,-0.006c-0.008,-0 -0.013,0.003 -0.016,0.009c-0.001,0.004 -0.003,0.008 -0.003,0.012l-0.005,0.059l-0.043,-0l-0.007,-0.114l0.047,0l0.006,0.016Z" style="fill:#080818;fill-rule:nonzero;"/><path d="M1.141,0.354c0.005,0.003 0.01,0.007 0.013,0.013c0.004,0.006 0.006,0.014 0.006,0.024c-0,0.01 -0.004,0.019 -0.01,0.027c-0.011,0.015 -0.029,0.022 -0.052,0.022c-0.011,0 -0.021,-0.001 -0.031,-0.004c-0.01,-0.003 -0.017,-0.006 -0.022,-0.009l-0.007,-0.004l0.01,-0.021c0.012,0.005 0.022,0.008 0.031,0.008c0.01,0 0.014,-0.003 0.014,-0.009c0,-0.003 -0.001,-0.006 -0.005,-0.009c-0.004,-0.003 -0.008,-0.006 -0.013,-0.009c-0.005,-0.002 -0.011,-0.005 -0.016,-0.009c-0.005,-0.004 -0.009,-0.009 -0.013,-0.015c-0.004,-0.007 -0.005,-0.014 -0.005,-0.023c-0,-0.015 0.005,-0.027 0.017,-0.035c0.012,-0.008 0.026,-0.012 0.043,-0.012c0.01,0 0.019,0.001 0.028,0.004c0.008,0.002 0.015,0.004 0.018,0.007l0.006,0.003l-0.009,0.021c-0.008,-0.004 -0.017,-0.005 -0.025,-0.005c-0.008,-0 -0.012,0.003 -0.012,0.009c-0,0.003 0.002,0.006 0.005,0.009c0.004,0.003 0.008,0.005 0.013,0.008c0.006,0.002 0.011,0.005 0.016,0.009Z" style="fill:#080818;fill-rule:nonzero;"/><path d="M1.236,0.395c0,0.009 0.003,0.014 0.01,0.014c0.002,0 0.004,-0.001 0.007,-0.003l0.005,0.024c-0.001,0.001 -0.002,0.002 -0.004,0.003c-0.001,0.001 -0.005,0.002 -0.011,0.004c-0.005,0.002 -0.011,0.003 -0.017,0.003c-0.011,0 -0.019,-0.003 -0.026,-0.011c-0.007,-0.007 -0.011,-0.017 -0.011,-0.028l-0.003,-0.046l-0.018,0l0.003,-0.031l0.014,0l-0.001,-0.023l0.057,-0.012l-0.002,0.035l0.014,0l0.003,0.031l-0.018,0l-0.002,0.04Z" style="fill:#080818;fill-rule:nonzero;"/><path d="M1.318,0.44c-0.03,0 -0.045,-0.02 -0.045,-0.061c-0,-0.011 0.001,-0.03 0.005,-0.055l0.047,0l-0,0.052c-0,0.019 0.005,0.028 0.015,0.028c0.009,-0 0.014,-0.009 0.014,-0.025l-0,-0.004l-0.002,-0.051l0.054,0l-0.005,0.114l-0.041,-0l-0.002,-0.022c-0.001,0 -0.001,0.001 -0.002,0.002c-0,0.002 -0.001,0.004 -0.004,0.006c-0.002,0.003 -0.004,0.006 -0.007,0.008c-0.003,0.002 -0.006,0.004 -0.011,0.006c-0.005,0.001 -0.01,0.002 -0.016,0.002Z" style="fill:#080818;fill-rule:nonzero;"/><path d="M1.432,0.324c0,-0.015 0.004,-0.026 0.011,-0.034c0.007,-0.007 0.018,-0.011 0.035,-0.011c0.007,-0 0.014,0.001 0.021,0.003l0.003,0.023c-0.003,-0 -0.005,-0.001 -0.007,-0.001c-0.008,0 -0.012,0.006 -0.012,0.017l-0,0.003l0.014,0l0.003,0.031l-0.016,0l-0.003,0.083l-0.044,-0l-0.004,-0.083l-0.015,0l0.003,-0.031l0.011,0Z" style="fill:#080818;fill-rule:nonzero;"/><path d="M1.526,0.324c-0,-0.015 0.003,-0.026 0.01,-0.034c0.007,-0.007 0.019,-0.011 0.036,-0.011c0.007,-0 0.014,0.001 0.021,0.003l0.002,0.023c-0.002,-0 -0.004,-0.001 -0.007,-0.001c-0.008,0 -0.012,0.006 -0.012,0.017l0,0.003l0.015,0l0.003,0.031l-0.016,0l-0.004,0.083l-0.044,-0l-0.003,-0.083l-0.016,0l0.003,-0.031l0.012,0Z" style="fill:#080818;fill-rule:nonzero;"/></svg>