<?xml version="1.0" encoding="UTF-8" standalone="no"?><!DOCTYPE svg PUBLIC "-//W3C//DTD SVG 1.1//EN" "http://www.w3.org/Graphics/SVG/1.1/DTD/svg11.dtd"><svg width="100%" height="100%" viewBox="0 0 2 1" version="1.1" xmlns="http://www.w3.org/2000/svg" xmlns:xlink="http://www.w3.org/1999/xlink" xml:space="preserve" xmlns:serif="http://www.serif.com/" style="fill-rule:evenodd;clip-rule:evenodd;stroke-linejoin:round;stroke-miterlimit:2;"><path d="M0.341,0.216c-0.109,-0.051 -0.223,-0.046 -0.341,-0c0,-0 0.055,0.248 0.055,0.372c-0,0.124 -0.055,0.372 -0.055,0.372c0.125,-0.038 0.238,-0.036 0.341,-0c0.008,-0.248 0.01,-0.496 0,-0.744Z" style="fill:#917c64;"/><path d="M1.579,0.215c0.109,-0.051 0.223,-0.046 0.341,-0c-0,-0 -0.055,0.248 -0.055,0.372c0,0.124 0.055,0.372 0.055,0.372c-0.125,-0.038 -0.238,-0.036 -0.341,-0c-0.008,-0.248 -0.01,-0.496 -0,-0.744Z" style="fill:#917c64;"/><path d="M0.236,0.81c0.059,0.03 0.098,0.098 0.105,0.149c0.06,-0.102 0.041,-0.311 0,-0.447l-0.105,0.298Z" style="fill:#625246;"/><path d="M1.684,0.81c-0.059,0.03 -0.098,0.098 -0.105,0.149c-0.06,-0.102 -0.041,-0.311 -0,-0.447l0.105,0.298Z" style="fill:#625246;"/><path d="M1.683,0.066c-0.476,-0.086 -0.959,-0.09 -1.448,-0c0.029,0.254 0.045,0.495 0,0.744c0.459,-0.082 0.941,-0.082 1.448,0c-0.052,-0.245 -0.039,-0.493 0,-0.744Z" style="fill:#a49381;"/><g transform="matrix(0.24,0,0,0.24,-0.044475,-0.211012)"><g transform="matrix(1.04167,0,0,1.04167,2.77854,2.10734)"><path d="M0.873,-0.606l0.181,0c0,0.079 -0.008,0.153 -0.024,0.224c-0.015,0.071 -0.034,0.128 -0.056,0.173c-0.023,0.045 -0.045,0.083 -0.068,0.116c-0.023,0.033 -0.042,0.057 -0.058,0.071l-0.023,0.022l-0.227,-0l-0.075,-0.243c-0.009,0.031 -0.024,0.067 -0.043,0.107c-0.02,0.041 -0.038,0.073 -0.053,0.098l-0.023,0.038l-0.217,-0l-0.187,-0.606l0.317,0l0.057,0.394c0.01,-0.01 0.023,-0.028 0.038,-0.055c0.015,-0.026 0.027,-0.053 0.038,-0.081c0.01,-0.027 0.02,-0.064 0.029,-0.111c0.009,-0.046 0.013,-0.095 0.014,-0.147l0.215,0l0.057,0.394c0.047,-0.059 0.079,-0.141 0.097,-0.246c0.007,-0.047 0.011,-0.096 0.011,-0.148Z" style="fill:#080818;fill-rule:nonzero;"/></g><g transform="matrix(1.04167,0,0,1.04167,3.90771,2.10734)"><path d="M0.098,-0.05c-0.049,-0.039 -0.073,-0.102 -0.073,-0.189c-0,-0.087 0.024,-0.15 0.073,-0.19c0.048,-0.039 0.112,-0.059 0.193,-0.059c0.081,0 0.145,0.02 0.193,0.059c0.049,0.04 0.073,0.103 0.073,0.19c0,0.087 -0.024,0.15 -0.073,0.19c-0.048,0.039 -0.112,0.059 -0.193,0.059c-0.081,-0 -0.145,-0.02 -0.194,-0.06Zm0.152,-0.303c-0.008,0.023 -0.012,0.061 -0.012,0.114c-0,0.053 0.004,0.091 0.012,0.113c0.008,0.024 0.022,0.035 0.042,0.035c0.02,0 0.034,-0.011 0.042,-0.035c0.008,-0.022 0.012,-0.06 0.012,-0.113c-0,-0.053 -0.004,-0.091 -0.012,-0.113c-0.008,-0.024 -0.022,-0.035 -0.042,-0.035c-0.02,0 -0.034,0.012 -0.042,0.035Z" style="fill:#080818;fill-rule:nonzero;"/></g><g transform="matrix(1.04167,0,0,1.04167,4.51396,2.10734)"><path d="M0.252,-0.409c0.035,-0.053 0.079,-0.079 0.131,-0.079c0.025,0 0.047,0.006 0.068,0.018l-0.024,0.164c-0.027,-0.019 -0.057,-0.028 -0.09,-0.028c-0.032,0 -0.054,0.013 -0.065,0.04c-0.007,0.017 -0.011,0.033 -0.013,0.048l-0.019,0.246l-0.18,0l-0.03,-0.474l0.197,0l0.025,0.065Z" style="fill:#080818;fill-rule:nonzero;"/></g><g transform="matrix(1.04167,0,0,1.04167,4.98375,2.10734)"><path d="M0.416,-0c-0.079,-0.077 -0.135,-0.131 -0.168,-0.163l-0.007,0.163l-0.184,-0l-0.027,-0.649l0.238,0l-0.012,0.308l0.101,-0.133l0.202,0l-0.141,0.198l0.161,0.276l-0.163,-0Z" style="fill:#080818;fill-rule:nonzero;"/></g><g transform="matrix(1.04167,0,0,1.04167,1.46292,3.14901)"><path d="M0.324,-0.233c0,0.041 0.007,0.068 0.02,0.083c0.013,0.014 0.03,0.021 0.05,0.021c0.031,0 0.063,-0.005 0.095,-0.016l0.015,-0.005l0.043,0.086c-0.006,0.005 -0.015,0.012 -0.027,0.021c-0.012,0.008 -0.039,0.019 -0.081,0.033c-0.041,0.013 -0.084,0.02 -0.129,0.02c-0.044,-0 -0.081,-0.006 -0.111,-0.019c-0.03,-0.013 -0.053,-0.027 -0.069,-0.044c-0.016,-0.017 -0.029,-0.04 -0.039,-0.068c-0.01,-0.029 -0.017,-0.053 -0.02,-0.073c-0.002,-0.02 -0.005,-0.045 -0.007,-0.075l-0.024,-0.337l0.45,0l0.028,0.12l-0.17,0.015l-0.01,0.097l0.134,0l0.02,0.094l-0.168,0.042l0,0.005Z" style="fill:#080818;fill-rule:nonzero;"/></g><g transform="matrix(1.04167,0,0,1.04167,2.04833,3.14901)"><path d="M0.216,-0.124c-0.033,0.039 -0.049,0.081 -0.049,0.124l-0.147,-0c0,-0.09 0.043,-0.174 0.129,-0.251l-0.117,-0.223l0.249,0l0.056,0.107c0.008,-0.006 0.016,-0.02 0.023,-0.04c0.007,-0.022 0.011,-0.044 0.011,-0.067l0.147,0c0,0.097 -0.037,0.177 -0.11,0.242l0.122,0.232l-0.248,-0l-0.066,-0.124Z" style="fill:#080818;fill-rule:nonzero;"/></g><g transform="matrix(1.04167,0,0,1.04167,2.61083,3.14901)"><path d="M0.387,0.01c-0.037,-0 -0.068,-0.009 -0.093,-0.026c-0.022,-0.016 -0.039,-0.032 -0.051,-0.049l-0.013,0.236l-0.171,0l-0.029,-0.645l0.215,0l0.011,0.056c0.003,-0.005 0.009,-0.012 0.016,-0.02c0.007,-0.007 0.021,-0.018 0.044,-0.031c0.024,-0.013 0.047,-0.019 0.072,-0.019c0.025,0 0.048,0.004 0.07,0.011c0.021,0.007 0.042,0.019 0.063,0.035c0.021,0.017 0.038,0.042 0.051,0.075c0.013,0.033 0.02,0.073 0.02,0.119c-0,0.084 -0.019,0.148 -0.057,0.192c-0.038,0.044 -0.087,0.066 -0.148,0.066Zm-0.061,-0.363c-0.044,-0 -0.066,0.04 -0.066,0.12c0,0.028 0.005,0.053 0.015,0.074c0.009,0.021 0.024,0.032 0.043,0.032c0.019,-0 0.034,-0.007 0.044,-0.021c0.015,-0.021 0.023,-0.05 0.023,-0.085c0,-0.08 -0.02,-0.12 -0.059,-0.12Z" style="fill:#080818;fill-rule:nonzero;"/></g><g transform="matrix(1.04167,0,0,1.04167,3.25354,3.14901)"><path d="M0.291,0.01c-0.075,-0 -0.138,-0.022 -0.189,-0.066c-0.051,-0.043 -0.077,-0.107 -0.077,-0.192c0,-0.053 0.013,-0.099 0.039,-0.136c0.047,-0.069 0.121,-0.104 0.22,-0.104c0.076,0 0.134,0.015 0.174,0.045c0.04,0.031 0.06,0.073 0.06,0.126c0,0.041 -0.017,0.075 -0.049,0.101c-0.034,0.025 -0.082,0.038 -0.145,0.038c-0.026,0 -0.049,-0.002 -0.07,-0.006l-0.011,-0.002c0.003,0.024 0.014,0.042 0.031,0.053c0.018,0.012 0.039,0.018 0.064,0.018c0.041,0 0.075,-0.012 0.104,-0.037l0.062,0.075c-0.011,0.013 -0.023,0.025 -0.038,0.035c-0.015,0.011 -0.038,0.023 -0.07,0.034c-0.032,0.012 -0.067,0.018 -0.105,0.018Zm0.081,-0.336c-0,-0.013 -0.005,-0.024 -0.016,-0.033c-0.01,-0.009 -0.024,-0.013 -0.042,-0.013c-0.018,0 -0.035,0.008 -0.051,0.024c-0.015,0.016 -0.023,0.035 -0.023,0.057c0.015,0.007 0.034,0.01 0.057,0.01c0.024,-0 0.042,-0.004 0.055,-0.013c0.013,-0.008 0.02,-0.019 0.02,-0.032Z" style="fill:#080818;fill-rule:nonzero;"/></g><g transform="matrix(1.04167,0,0,1.04167,3.81917,3.14901)"><path d="M0.252,-0.409c0.035,-0.053 0.079,-0.079 0.131,-0.079c0.025,0 0.047,0.006 0.068,0.018l-0.024,0.164c-0.027,-0.019 -0.057,-0.028 -0.09,-0.028c-0.032,0 -0.054,0.013 -0.065,0.04c-0.007,0.017 -0.011,0.033 -0.013,0.048l-0.019,0.246l-0.18,0l-0.03,-0.474l0.197,0l0.025,0.065Z" style="fill:#080818;fill-rule:nonzero;"/></g><g transform="matrix(1.04167,0,0,1.04167,4.28896,3.14901)"><path d="M0.268,-0.46l0.017,-0.006l-0.034,0.466l-0.189,-0l-0.032,-0.466c0.038,0.015 0.079,0.023 0.122,0.023c0.043,0 0.081,-0.006 0.116,-0.017Zm-0.111,-0.027c-0.033,0 -0.061,-0.01 -0.084,-0.03c-0.023,-0.02 -0.034,-0.046 -0.034,-0.079c-0,-0.032 0.011,-0.058 0.033,-0.078c0.023,-0.019 0.051,-0.029 0.084,-0.029c0.034,0 0.062,0.01 0.085,0.03c0.023,0.02 0.034,0.046 0.034,0.078c0,0.032 -0.011,0.058 -0.034,0.078c-0.023,0.02 -0.051,0.03 -0.084,0.03Z" style="fill:#080818;fill-rule:nonzero;"/></g><g transform="matrix(1.04167,0,0,1.04167,4.61708,3.14901)"><path d="M0.291,0.01c-0.075,-0 -0.138,-0.022 -0.189,-0.066c-0.051,-0.043 -0.077,-0.107 -0.077,-0.192c0,-0.053 0.013,-0.099 0.039,-0.136c0.047,-0.069 0.121,-0.104 0.22,-0.104c0.076,0 0.134,0.015 0.174,0.045c0.04,0.031 0.06,0.073 0.06,0.126c0,0.041 -0.017,0.075 -0.049,0.101c-0.034,0.025 -0.082,0.038 -0.145,0.038c-0.026,0 -0.049,-0.002 -0.07,-0.006l-0.011,-0.002c0.003,0.024 0.014,0.042 0.031,0.053c0.018,0.012 0.039,0.018 0.064,0.018c0.041,0 0.075,-0.012 0.104,-0.037l0.062,0.075c-0.011,0.013 -0.023,0.025 -0.038,0.035c-0.015,0.011 -0.038,0.023 -0.07,0.034c-0.032,0.012 -0.067,0.018 -0.105,0.018Zm0.081,-0.336c-0,-0.013 -0.005,-0.024 -0.016,-0.033c-0.01,-0.009 -0.024,-0.013 -0.042,-0.013c-0.018,0 -0.035,0.008 -0.051,0.024c-0.015,0.016 -0.023,0.035 -0.023,0.057c0.015,0.007 0.034,0.01 0.057,0.01c0.024,-0 0.042,-0.004 0.055,-0.013c0.013,-0.008 0.02,-0.019 0.02,-0.032Z" style="fill:#080818;fill-rule:nonzero;"/></g><g transform="matrix(1.04167,0,0,1.04167,5.18271,3.14901)"><path d="M0.408,-0.488c0.047,0 0.087,0.02 0.12,0.059c0.034,0.039 0.051,0.09 0.051,0.153c-0,0.064 -0.008,0.155 -0.023,0.276l-0.175,-0l-0.02,-0.224c-0.007,-0.071 -0.026,-0.107 -0.058,-0.107c-0.038,0 -0.058,0.036 -0.061,0.108l-0.007,0.223l-0.184,0l-0.021,-0.474l0.226,0l-0.004,0.085c0.003,-0.007 0.011,-0.017 0.023,-0.031c0.012,-0.014 0.024,-0.025 0.035,-0.034c0.029,-0.023 0.062,-0.034 0.098,-0.034Z" style="fill:#080818;fill-rule:nonzero;"/></g><g transform="matrix(1.04167,0,0,1.04167,5.81708,3.14901)"><path d="M0.489,-0.07c-0.05,0.053 -0.117,0.08 -0.201,0.08c-0.083,-0 -0.148,-0.022 -0.194,-0.068c-0.046,-0.044 -0.069,-0.108 -0.069,-0.19c0,-0.082 0.025,-0.143 0.074,-0.182c0.049,-0.039 0.111,-0.058 0.185,-0.058c0.031,0 0.062,0.003 0.091,0.009c0.029,0.006 0.05,0.012 0.063,0.019l0.02,0.009l-0.022,0.103c-0.027,-0.008 -0.055,-0.012 -0.085,-0.012c-0.028,0 -0.055,0.009 -0.078,0.027c-0.024,0.019 -0.036,0.047 -0.036,0.085c0,0.085 0.033,0.128 0.099,0.128c0.017,-0 0.034,-0.002 0.05,-0.007c0.016,-0.004 0.028,-0.008 0.035,-0.013l0.011,-0.006l0.057,0.076Z" style="fill:#080818;fill-rule:nonzero;"/></g><g transform="matrix(1.04167,0,0,1.04167,6.32646,3.14901)"><path d="M0.291,0.01c-0.075,-0 -0.138,-0.022 -0.189,-0.066c-0.051,-0.043 -0.077,-0.107 -0.077,-0.192c0,-0.053 0.013,-0.099 0.039,-0.136c0.047,-0.069 0.121,-0.104 0.22,-0.104c0.076,0 0.134,0.015 0.174,0.045c0.04,0.031 0.06,0.073 0.06,0.126c0,0.041 -0.017,0.075 -0.049,0.101c-0.034,0.025 -0.082,0.038 -0.145,0.038c-0.026,0 -0.049,-0.002 -0.07,-0.006l-0.011,-0.002c0.003,0.024 0.014,0.042 0.031,0.053c0.018,0.012 0.039,0.018 0.064,0.018c0.041,0 0.075,-0.012 0.104,-0.037l0.062,0.075c-0.011,0.013 -0.023,0.025 -0.038,0.035c-0.015,0.011 -0.038,0.023 -0.07,0.034c-0.032,0.012 -0.067,0.018 -0.105,0.018Zm0.081,-0.336c-0,-0.013 -0.005,-0.024 -0.016,-0.033c-0.01,-0.009 -0.024,-0.013 -0.042,-0.013c-0.018,0 -0.035,0.008 -0.051,0.024c-0.015,0.016 -0.023,0.035 -0.023,0.057c0.015,0.007 0.034,0.01 0.057,0.01c0.024,-0 0.042,-0.004 0.055,-0.013c0.013,-0.008 0.02,-0.019 0.02,-0.032Z" style="fill:#080818;fill-rule:nonzero;"/></g></g><path d="M-0.509,-0.186c0.011,-0 0.02,-0.006 0.026,-0.018c0.006,-0.012 0.009,-0.024 0.009,-0.037c-0,-0.013 -0.003,-0.023 -0.007,-0.031c-0.005,-0.007 -0.011,-0.011 -0.018,-0.011l-0.002,-0l-0.009,0.097l0.001,-0Zm-0.001,0.024l-0.047,-0l-0.014,-0.146l0.07,0c0.036,0 0.061,0.01 0.074,0.03c0.007,0.01 0.011,0.022 0.011,0.037c-0,0.052 -0.032,0.079 -0.094,0.079Z" style="fill:#080818;fill-rule:nonzero;"/><path d="M-0.363,-0.16c-0.013,0 -0.023,-0.003 -0.031,-0.011c-0.008,-0.007 -0.012,-0.017 -0.012,-0.03c0,-0.013 0.005,-0.023 0.014,-0.029c0.009,-0.006 0.02,-0.009 0.032,-0.009c0.013,0 0.024,0.002 0.033,0.006c-0.002,-0.013 -0.01,-0.02 -0.025,-0.02c-0.007,0 -0.015,0.002 -0.025,0.004l-0.006,-0.021c0.014,-0.006 0.029,-0.009 0.044,-0.009c0.043,-0 0.064,0.018 0.064,0.054c0,0.013 -0.001,0.03 -0.004,0.052l-0.001,0.011l-0.04,-0l-0.001,-0.013c-0.011,0.01 -0.025,0.015 -0.042,0.015Zm0.021,-0.029c0.007,-0 0.014,-0.002 0.019,-0.006l-0.002,-0.016c-0.004,-0.003 -0.008,-0.004 -0.013,-0.004c-0.005,-0 -0.009,0.001 -0.012,0.003c-0.003,0.003 -0.005,0.006 -0.005,0.009c0,0.004 0.002,0.007 0.004,0.009c0.002,0.003 0.005,0.005 0.009,0.005Z" style="fill:#080818;fill-rule:nonzero;"/><path d="M-0.197,-0.205c0,0.009 0.003,0.014 0.01,0.014c0.002,0 0.004,-0.001 0.007,-0.003l0.005,0.024c-0.001,0.001 -0.002,0.002 -0.004,0.003c-0.002,0.001 -0.005,0.002 -0.011,0.004c-0.005,0.002 -0.011,0.003 -0.017,0.003c-0.011,0 -0.02,-0.003 -0.026,-0.011c-0.007,-0.007 -0.011,-0.017 -0.012,-0.028l-0.002,-0.046l-0.018,0l0.003,-0.031l0.014,0l-0.001,-0.023l0.057,-0.012l-0.002,0.035l0.014,0l0.003,0.031l-0.018,0l-0.002,0.04Z" style="fill:#080818;fill-rule:nonzero;"/><path d="M-0.119,-0.16c-0.013,0 -0.023,-0.003 -0.031,-0.011c-0.008,-0.007 -0.012,-0.017 -0.012,-0.03c0,-0.013 0.005,-0.023 0.014,-0.029c0.009,-0.006 0.019,-0.009 0.032,-0.009c0.013,0 0.024,0.002 0.033,0.006c-0.002,-0.013 -0.01,-0.02 -0.025,-0.02c-0.007,0 -0.015,0.002 -0.025,0.004l-0.006,-0.021c0.014,-0.006 0.029,-0.009 0.044,-0.009c0.043,-0 0.064,0.018 0.064,0.054c0,0.013 -0.001,0.03 -0.004,0.052l-0.001,0.011l-0.04,-0l-0.001,-0.013c-0.011,0.01 -0.025,0.015 -0.042,0.015Zm0.021,-0.029c0.007,-0 0.013,-0.002 0.019,-0.006l-0.002,-0.016c-0.004,-0.003 -0.008,-0.004 -0.013,-0.004c-0.005,-0 -0.009,0.001 -0.012,0.003c-0.003,0.003 -0.005,0.006 -0.005,0.009c0,0.004 0.001,0.007 0.004,0.009c0.002,0.003 0.005,0.005 0.009,0.005Z" style="fill:#080818;fill-rule:nonzero;"/></svg>