<?xml version="1.0" encoding="UTF-8" standalone="no"?><!DOCTYPE svg PUBLIC "-//W3C//DTD SVG 1.1//EN" "http://www.w3.org/Graphics/SVG/1.1/DTD/svg11.dtd"><svg width="100%" height="100%" viewBox="0 0 2 1" version="1.1" xmlns="http://www.w3.org/2000/svg" xmlns:xlink="http://www.w3.org/1999/xlink" xml:space="preserve" xmlns:serif="http://www.serif.com/" style="fill-rule:evenodd;clip-rule:evenodd;stroke-linejoin:round;stroke-miterlimit:2;"><path d="M0.341,0.216c-0.109,-0.051 -0.223,-0.046 -0.341,-0c0,-0 0.055,0.248 0.055,0.372c-0,0.124 -0.055,0.372 -0.055,0.372c0.125,-0.038 0.238,-0.036 0.341,-0c0.008,-0.248 0.01,-0.496 0,-0.744Z" style="fill:#917c64;"/><path d="M1.579,0.215c0.109,-0.051 0.223,-0.046 0.341,-0c-0,-0 -0.055,0.248 -0.055,0.372c0,0.124 0.055,0.372 0.055,0.372c-0.125,-0.038 -0.238,-0.036 -0.341,-0c-0.008,-0.248 -0.01,-0.496 -0,-0.744Z" style="fill:#917c64;"/><path d="M0.236,0.81c0.059,0.03 0.098,0.098 0.105,0.149c0.06,-0.102 0.041,-0.311 0,-0.447l-0.105,0.298Z" style="fill:#625246;"/><path d="M1.684,0.81c-0.059,0.03 -0.098,0.098 -0.105,0.149c-0.06,-0.102 -0.041,-0.311 -0,-0.447l0.105,0.298Z" style="fill:#625246;"/><path d="M1.683,0.066c-0.476,-0.086 -0.959,-0.09 -1.448,-0c0.029,0.254 0.045,0.495 0,0.744c0.459,-0.082 0.941,-0.082 1.448,0c-0.052,-0.245 -0.039,-0.493 0,-0.744Z" style="fill:#a49381;"/><g transform="matrix(0.24,0,0,0.24,-0.0411,-0.191812)"><g transform="matrix(1.25,0,0,1.25,2.9075,2.10734)"><path d="M0.45,-0.352c0.021,0.014 0.039,0.033 0.054,0.058c0.015,0.025 0.023,0.057 0.023,0.098c0,0.041 -0.013,0.079 -0.039,0.112c-0.048,0.063 -0.121,0.094 -0.219,0.094c-0.043,-0 -0.085,-0.006 -0.127,-0.019c-0.041,-0.012 -0.072,-0.024 -0.092,-0.037l-0.03,-0.018l0.043,-0.086c0.048,0.023 0.091,0.035 0.13,0.035c0.039,-0 0.058,-0.012 0.058,-0.037c-0,-0.014 -0.008,-0.027 -0.023,-0.04c-0.015,-0.012 -0.033,-0.024 -0.055,-0.035c-0.021,-0.011 -0.043,-0.025 -0.065,-0.04c-0.021,-0.015 -0.04,-0.036 -0.055,-0.063c-0.015,-0.027 -0.022,-0.058 -0.022,-0.094c-0,-0.064 0.024,-0.113 0.073,-0.146c0.049,-0.033 0.109,-0.05 0.178,-0.05c0.041,0 0.08,0.005 0.116,0.015c0.037,0.01 0.063,0.02 0.078,0.03l0.024,0.015l-0.039,0.085c-0.034,-0.015 -0.068,-0.022 -0.103,-0.022c-0.034,-0 -0.051,0.013 -0.051,0.039c0,0.014 0.008,0.027 0.023,0.038c0.014,0.011 0.033,0.022 0.054,0.032c0.022,0.011 0.044,0.023 0.066,0.037Z" style="fill:#080818;fill-rule:nonzero;"/></g><g transform="matrix(1.25,0,0,1.25,3.5975,2.10734)"><path d="M0.416,-0c-0.079,-0.077 -0.135,-0.131 -0.168,-0.163l-0.007,0.163l-0.184,-0l-0.027,-0.649l0.238,0l-0.012,0.308l0.101,-0.133l0.202,0l-0.141,0.198l0.161,0.276l-0.163,-0Z" style="fill:#080818;fill-rule:nonzero;"/></g><g transform="matrix(1.25,0,0,1.25,4.30875,2.10734)"><path d="M0.268,-0.46l0.017,-0.006l-0.034,0.466l-0.189,-0l-0.032,-0.466c0.038,0.015 0.079,0.023 0.122,0.023c0.043,0 0.081,-0.006 0.116,-0.017Zm-0.111,-0.027c-0.033,0 -0.061,-0.01 -0.084,-0.03c-0.023,-0.02 -0.034,-0.046 -0.034,-0.079c-0,-0.032 0.011,-0.058 0.033,-0.078c0.023,-0.019 0.051,-0.029 0.084,-0.029c0.034,0 0.062,0.01 0.085,0.03c0.023,0.02 0.034,0.046 0.034,0.078c0,0.032 -0.011,0.058 -0.034,0.078c-0.023,0.02 -0.051,0.03 -0.084,0.03Z" style="fill:#080818;fill-rule:nonzero;"/></g><g transform="matrix(1.25,0,0,1.25,4.7025,2.10734)"><path d="M0.268,-0.649l-0.027,0.649l-0.184,-0l-0.027,-0.649l0.238,0Z" style="fill:#080818;fill-rule:nonzero;"/></g><g transform="matrix(1.25,0,0,1.25,5.075,2.10734)"><path d="M0.268,-0.649l-0.027,0.649l-0.184,-0l-0.027,-0.649l0.238,0Z" style="fill:#080818;fill-rule:nonzero;"/></g><g transform="matrix(1.25,0,0,1.25,2.9275,3.35734)"><path d="M0.45,-0.352c0.021,0.014 0.039,0.033 0.054,0.058c0.015,0.025 0.023,0.057 0.023,0.098c0,0.041 -0.013,0.079 -0.039,0.112c-0.048,0.063 -0.121,0.094 -0.219,0.094c-0.043,-0 -0.085,-0.006 -0.127,-0.019c-0.041,-0.012 -0.072,-0.024 -0.092,-0.037l-0.03,-0.018l0.043,-0.086c0.048,0.023 0.091,0.035 0.13,0.035c0.039,-0 0.058,-0.012 0.058,-0.037c-0,-0.014 -0.008,-0.027 -0.023,-0.04c-0.015,-0.012 -0.033,-0.024 -0.055,-0.035c-0.021,-0.011 -0.043,-0.025 -0.065,-0.04c-0.021,-0.015 -0.04,-0.036 -0.055,-0.063c-0.015,-0.027 -0.022,-0.058 -0.022,-0.094c-0,-0.064 0.024,-0.113 0.073,-0.146c0.049,-0.033 0.109,-0.05 0.178,-0.05c0.041,0 0.08,0.005 0.116,0.015c0.037,0.01 0.063,0.02 0.078,0.03l0.024,0.015l-0.039,0.085c-0.034,-0.015 -0.068,-0.022 -0.103,-0.022c-0.034,-0 -0.051,0.013 -0.051,0.039c0,0.014 0.008,0.027 0.023,0.038c0.014,0.011 0.033,0.022 0.054,0.032c0.022,0.011 0.044,0.023 0.066,0.037Z" style="fill:#080818;fill-rule:nonzero;"/></g><g transform="matrix(1.25,0,0,1.25,3.6175,3.35734)"><path d="M0.291,0.01c-0.075,-0 -0.138,-0.022 -0.189,-0.066c-0.051,-0.043 -0.077,-0.107 -0.077,-0.192c0,-0.053 0.013,-0.099 0.039,-0.136c0.047,-0.069 0.121,-0.104 0.22,-0.104c0.076,0 0.134,0.015 0.174,0.045c0.04,0.031 0.06,0.073 0.06,0.126c0,0.041 -0.017,0.075 -0.049,0.101c-0.034,0.025 -0.082,0.038 -0.145,0.038c-0.026,0 -0.049,-0.002 -0.07,-0.006l-0.011,-0.002c0.003,0.024 0.014,0.042 0.031,0.053c0.018,0.012 0.039,0.018 0.064,0.018c0.041,0 0.075,-0.012 0.104,-0.037l0.062,0.075c-0.011,0.013 -0.023,0.025 -0.038,0.035c-0.015,0.011 -0.038,0.023 -0.07,0.034c-0.032,0.012 -0.067,0.018 -0.105,0.018Zm0.081,-0.336c-0,-0.013 -0.005,-0.024 -0.016,-0.033c-0.01,-0.009 -0.024,-0.013 -0.042,-0.013c-0.018,0 -0.035,0.008 -0.051,0.024c-0.015,0.016 -0.023,0.035 -0.023,0.057c0.015,0.007 0.034,0.01 0.057,0.01c0.024,-0 0.042,-0.004 0.055,-0.013c0.013,-0.008 0.02,-0.019 0.02,-0.032Z" style="fill:#080818;fill-rule:nonzero;"/></g><g transform="matrix(1.25,0,0,1.25,4.29625,3.35734)"><path d="M0.295,-0.178c-0.001,0.039 0.013,0.058 0.041,0.058c0.008,0 0.018,-0.004 0.029,-0.011l0.021,0.097c-0.004,0.003 -0.01,0.008 -0.017,0.013c-0.007,0.005 -0.022,0.011 -0.044,0.019c-0.024,0.008 -0.047,0.012 -0.072,0.012c-0.045,-0 -0.082,-0.015 -0.111,-0.047c-0.029,-0.031 -0.044,-0.07 -0.046,-0.118l-0.009,-0.189l-0.077,0l0.012,-0.13l0.06,0l-0.004,-0.098l0.237,-0.048l-0.007,0.146l0.058,0l0.012,0.13l-0.076,0l-0.007,0.166Z" style="fill:#080818;fill-rule:nonzero;"/></g><g transform="matrix(1.25,0,0,1.25,4.81625,3.35734)"><path d="M0.464,-0.15c0,0.038 -0.013,0.07 -0.038,0.095c-0.025,0.025 -0.055,0.042 -0.088,0.051c-0.033,0.009 -0.064,0.014 -0.095,0.014c-0.031,-0 -0.058,-0.002 -0.081,-0.006c-0.023,-0.004 -0.042,-0.009 -0.058,-0.014c-0.029,-0.011 -0.053,-0.022 -0.07,-0.032l-0.009,-0.006l0.044,-0.091c0.04,0.023 0.074,0.034 0.101,0.034c0.027,-0 0.041,-0.011 0.041,-0.034c-0,-0.011 -0.009,-0.023 -0.026,-0.035c-0.017,-0.012 -0.036,-0.023 -0.057,-0.034c-0.02,-0.011 -0.039,-0.027 -0.056,-0.049c-0.017,-0.022 -0.026,-0.047 -0.026,-0.076c-0,-0.051 0.019,-0.09 0.058,-0.116c0.039,-0.026 0.09,-0.039 0.153,-0.039c0.032,0 0.063,0.003 0.094,0.008c0.031,0.005 0.054,0.011 0.069,0.016l0.022,0.009l-0.025,0.101c-0.038,-0.014 -0.07,-0.021 -0.097,-0.021c-0.027,0 -0.04,0.01 -0.04,0.031c-0,0.01 0.006,0.019 0.019,0.028c0.013,0.009 0.028,0.018 0.046,0.027c0.018,0.009 0.036,0.018 0.054,0.029c0.018,0.011 0.033,0.026 0.046,0.045c0.013,0.019 0.019,0.041 0.019,0.065Z" style="fill:#080818;fill-rule:nonzero;"/></g></g><path d="M-0.509,-0.186c0.011,-0 0.02,-0.006 0.026,-0.018c0.006,-0.012 0.009,-0.024 0.009,-0.037c-0,-0.013 -0.003,-0.023 -0.007,-0.031c-0.005,-0.007 -0.011,-0.011 -0.018,-0.011l-0.002,-0l-0.009,0.097l0.001,-0Zm-0.001,0.024l-0.047,-0l-0.014,-0.146l0.07,0c0.036,0 0.061,0.01 0.074,0.03c0.007,0.01 0.011,0.022 0.011,0.037c-0,0.052 -0.032,0.079 -0.094,0.079Z" style="fill:#080818;fill-rule:nonzero;"/><path d="M-0.363,-0.16c-0.013,0 -0.023,-0.003 -0.031,-0.011c-0.008,-0.007 -0.012,-0.017 -0.012,-0.03c0,-0.013 0.005,-0.023 0.014,-0.029c0.009,-0.006 0.02,-0.009 0.032,-0.009c0.013,0 0.024,0.002 0.033,0.006c-0.002,-0.013 -0.01,-0.02 -0.025,-0.02c-0.007,0 -0.015,0.002 -0.025,0.004l-0.006,-0.021c0.014,-0.006 0.029,-0.009 0.044,-0.009c0.043,-0 0.064,0.018 0.064,0.054c0,0.013 -0.001,0.03 -0.004,0.052l-0.001,0.011l-0.04,-0l-0.001,-0.013c-0.011,0.01 -0.025,0.015 -0.042,0.015Zm0.021,-0.029c0.007,-0 0.014,-0.002 0.019,-0.006l-0.002,-0.016c-0.004,-0.003 -0.008,-0.004 -0.013,-0.004c-0.005,-0 -0.009,0.001 -0.012,0.003c-0.003,0.003 -0.005,0.006 -0.005,0.009c0,0.004 0.002,0.007 0.004,0.009c0.002,0.003 0.005,0.005 0.009,0.005Z" style="fill:#080818;fill-rule:nonzero;"/><path d="M-0.197,-0.205c0,0.009 0.003,0.014 0.01,0.014c0.002,0 0.004,-0.001 0.007,-0.003l0.005,0.024c-0.001,0.001 -0.002,0.002 -0.004,0.003c-0.002,0.001 -0.005,0.002 -0.011,0.004c-0.005,0.002 -0.011,0.003 -0.017,0.003c-0.011,0 -0.02,-0.003 -0.026,-0.011c-0.007,-0.007 -0.011,-0.017 -0.012,-0.028l-0.002,-0.046l-0.018,0l0.003,-0.031l0.014,0l-0.001,-0.023l0.057,-0.012l-0.002,0.035l0.014,0l0.003,0.031l-0.018,0l-0.002,0.04Z" style="fill:#080818;fill-rule:nonzero;"/><path d="M-0.119,-0.16c-0.013,0 -0.023,-0.003 -0.031,-0.011c-0.008,-0.007 -0.012,-0.017 -0.012,-0.03c0,-0.013 0.005,-0.023 0.014,-0.029c0.009,-0.006 0.019,-0.009 0.032,-0.009c0.013,0 0.024,0.002 0.033,0.006c-0.002,-0.013 -0.01,-0.02 -0.025,-0.02c-0.007,0 -0.015,0.002 -0.025,0.004l-0.006,-0.021c0.014,-0.006 0.029,-0.009 0.044,-0.009c0.043,-0 0.064,0.018 0.064,0.054c0,0.013 -0.001,0.03 -0.004,0.052l-0.001,0.011l-0.04,-0l-0.001,-0.013c-0.011,0.01 -0.025,0.015 -0.042,0.015Zm0.021,-0.029c0.007,-0 0.013,-0.002 0.019,-0.006l-0.002,-0.016c-0.004,-0.003 -0.008,-0.004 -0.013,-0.004c-0.005,-0 -0.009,0.001 -0.012,0.003c-0.003,0.003 -0.005,0.006 -0.005,0.009c0,0.004 0.001,0.007 0.004,0.009c0.002,0.003 0.005,0.005 0.009,0.005Z" style="fill:#080818;fill-rule:nonzero;"/></svg>