<?xml version="1.0" encoding="UTF-8" standalone="no"?><!DOCTYPE svg PUBLIC "-//W3C//DTD SVG 1.1//EN" "http://www.w3.org/Graphics/SVG/1.1/DTD/svg11.dtd"><svg width="100%" height="100%" viewBox="0 0 2 1" version="1.1" xmlns="http://www.w3.org/2000/svg" xmlns:xlink="http://www.w3.org/1999/xlink" xml:space="preserve" xmlns:serif="http://www.serif.com/" style="fill-rule:evenodd;clip-rule:evenodd;stroke-linejoin:round;stroke-miterlimit:2;"><path d="M0.341,0.216c-0.109,-0.051 -0.223,-0.046 -0.341,-0c0,-0 0.055,0.248 0.055,0.372c-0,0.124 -0.055,0.372 -0.055,0.372c0.125,-0.038 0.238,-0.036 0.341,-0c0.008,-0.248 0.01,-0.496 0,-0.744Z" style="fill:#917c64;"/><path d="M1.579,0.215c0.109,-0.051 0.223,-0.046 0.341,-0c-0,-0 -0.055,0.248 -0.055,0.372c0,0.124 0.055,0.372 0.055,0.372c-0.125,-0.038 -0.238,-0.036 -0.341,-0c-0.008,-0.248 -0.01,-0.496 -0,-0.744Z" style="fill:#917c64;"/><path d="M0.236,0.81c0.059,0.03 0.098,0.098 0.105,0.149c0.06,-0.102 0.041,-0.311 0,-0.447l-0.105,0.298Z" style="fill:#625246;"/><path d="M1.684,0.81c-0.059,0.03 -0.098,0.098 -0.105,0.149c-0.06,-0.102 -0.041,-0.311 -0,-0.447l0.105,0.298Z" style="fill:#625246;"/><path d="M1.683,0.066c-0.476,-0.086 -0.959,-0.09 -1.448,-0c0.029,0.254 0.045,0.495 0,0.744c0.459,-0.082 0.941,-0.082 1.448,0c-0.052,-0.245 -0.039,-0.493 0,-0.744Z" style="fill:#a49381;"/><path d="M0.369,0.392c-0,0.012 0.002,0.02 0.006,0.024c0.003,0.004 0.008,0.006 0.014,0.006c0.009,-0 0.018,-0.002 0.027,-0.005l0.004,-0.001l0.012,0.025c-0.001,0.001 -0.004,0.003 -0.007,0.005c-0.004,0.003 -0.011,0.006 -0.023,0.01c-0.012,0.004 -0.024,0.006 -0.037,0.006c-0.013,-0 -0.023,-0.002 -0.032,-0.006c-0.008,-0.003 -0.015,-0.008 -0.019,-0.012c-0.005,-0.005 -0.009,-0.012 -0.011,-0.02c-0.003,-0.008 -0.005,-0.015 -0.006,-0.021c-0.001,-0.005 -0.002,-0.012 -0.002,-0.021l-0.007,-0.096l0.128,0l0.008,0.034l-0.048,0.005l-0.003,0.027l0.038,0l0.006,0.027l-0.048,0.012l-0,0.001Z" style="fill:#080818;fill-rule:nonzero;"/><path d="M0.444,0.388c-0,-0.013 0.002,-0.024 0.005,-0.034c0.004,-0.009 0.009,-0.016 0.015,-0.021c0.011,-0.009 0.024,-0.013 0.037,-0.013c0.007,-0 0.014,0.001 0.019,0.004c0.006,0.003 0.01,0.005 0.012,0.008l0.004,0.004l-0.002,-0.062l0.065,-0l-0.008,0.185l-0.043,-0l-0.005,-0.019c-0.011,0.014 -0.025,0.021 -0.042,0.021c-0.016,0.001 -0.03,-0.006 -0.041,-0.018c-0.011,-0.013 -0.016,-0.031 -0.016,-0.055Zm0.076,-0.03c-0.012,-0 -0.017,0.011 -0.017,0.034c-0,0.004 0,0.008 0.001,0.012c0,0.004 0.002,0.008 0.005,0.012c0.003,0.004 0.007,0.006 0.012,0.006c0.006,0 0.01,-0.003 0.013,-0.009c0.003,-0.006 0.004,-0.013 0.004,-0.021c0,-0.023 -0.006,-0.034 -0.018,-0.034Z" style="fill:#080818;fill-rule:nonzero;"/><path d="M0.67,0.462c-0.036,-0 -0.054,-0.025 -0.054,-0.074c-0,-0.013 0.002,-0.034 0.006,-0.064l0.056,-0l-0,0.061c-0,0.022 0.006,0.033 0.018,0.033c0.011,0 0.016,-0.01 0.016,-0.029l0,-0.005l-0.002,-0.06l0.064,-0l-0.006,0.135l-0.048,-0l-0.003,-0.026c-0.001,0 -0.001,0.001 -0.002,0.003c-0,0.001 -0.002,0.003 -0.005,0.007c-0.002,0.003 -0.005,0.006 -0.008,0.008c-0.003,0.003 -0.008,0.005 -0.014,0.007c-0.005,0.003 -0.012,0.004 -0.018,0.004Z" style="fill:#080818;fill-rule:nonzero;"/><path d="M0.922,0.439c-0.014,0.015 -0.033,0.023 -0.057,0.023c-0.024,-0 -0.043,-0.007 -0.056,-0.02c-0.013,-0.012 -0.019,-0.031 -0.019,-0.054c-0,-0.023 0.007,-0.041 0.021,-0.052c0.014,-0.011 0.031,-0.016 0.052,-0.016c0.009,-0 0.018,0.001 0.026,0.002c0.008,0.002 0.014,0.004 0.018,0.006l0.006,0.002l-0.006,0.03c-0.008,-0.003 -0.016,-0.004 -0.024,-0.004c-0.009,0 -0.016,0.003 -0.023,0.008c-0.007,0.005 -0.01,0.013 -0.01,0.024c-0,0.024 0.009,0.037 0.028,0.037c0.005,-0 0.01,-0.001 0.014,-0.002c0.005,-0.002 0.008,-0.003 0.01,-0.004l0.004,-0.002l0.016,0.022Z" style="fill:#080818;fill-rule:nonzero;"/><path d="M0.979,0.462c-0.015,-0 -0.027,-0.005 -0.036,-0.013c-0.009,-0.009 -0.014,-0.021 -0.014,-0.037c-0,-0.015 0.005,-0.027 0.016,-0.034c0.011,-0.007 0.023,-0.01 0.038,-0.01c0.015,-0 0.028,0.002 0.039,0.007c-0.002,-0.016 -0.012,-0.024 -0.03,-0.024c-0.007,0 -0.017,0.002 -0.029,0.005l-0.007,-0.026c0.017,-0.007 0.034,-0.01 0.052,-0.01c0.051,-0 0.076,0.021 0.076,0.065c0,0.014 -0.001,0.035 -0.005,0.061l-0.001,0.013l-0.047,-0l-0.002,-0.016c-0.013,0.012 -0.03,0.019 -0.05,0.019Zm0.026,-0.036c0.008,0 0.016,-0.002 0.022,-0.007l-0.002,-0.019c-0.005,-0.003 -0.01,-0.005 -0.016,-0.005c-0.006,0 -0.01,0.002 -0.014,0.005c-0.004,0.003 -0.006,0.006 -0.006,0.01c0,0.004 0.002,0.008 0.005,0.011c0.002,0.004 0.006,0.005 0.011,0.005Z" style="fill:#080818;fill-rule:nonzero;"/><path d="M1.177,0.408c-0,0.011 0.004,0.017 0.012,0.017c0.002,-0 0.005,-0.001 0.008,-0.004l0.006,0.028c-0.001,0.001 -0.003,0.002 -0.005,0.004c-0.002,0.001 -0.006,0.003 -0.013,0.005c-0.006,0.002 -0.013,0.004 -0.02,0.004c-0.013,-0 -0.024,-0.005 -0.032,-0.014c-0.008,-0.008 -0.012,-0.02 -0.013,-0.033l-0.002,-0.054l-0.022,-0l0.003,-0.037l0.017,-0l-0.001,-0.028l0.068,-0.014l-0.002,0.042l0.016,-0l0.004,0.037l-0.022,-0l-0.002,0.047Z" style="fill:#080818;fill-rule:nonzero;"/><path d="M1.288,0.328l0.005,-0.002l-0.01,0.133l-0.054,-0l-0.009,-0.133c0.011,0.004 0.022,0.006 0.035,0.006c0.012,0 0.023,-0.001 0.033,-0.004Zm-0.032,-0.008c-0.009,-0 -0.017,-0.003 -0.024,-0.009c-0.006,-0.005 -0.01,-0.013 -0.01,-0.022c0,-0.009 0.004,-0.017 0.01,-0.022c0.006,-0.006 0.014,-0.009 0.024,-0.009c0.01,0 0.018,0.003 0.024,0.009c0.007,0.006 0.01,0.013 0.01,0.022c-0,0.009 -0.003,0.017 -0.01,0.022c-0.006,0.006 -0.014,0.009 -0.024,0.009Z" style="fill:#080818;fill-rule:nonzero;"/><path d="M1.329,0.445c-0.014,-0.012 -0.021,-0.03 -0.021,-0.054c0,-0.025 0.007,-0.043 0.021,-0.054c0.014,-0.012 0.032,-0.017 0.055,-0.017c0.023,-0 0.041,0.005 0.055,0.017c0.014,0.011 0.021,0.029 0.021,0.054c-0,0.024 -0.007,0.042 -0.021,0.054c-0.014,0.011 -0.032,0.017 -0.055,0.017c-0.023,-0 -0.041,-0.006 -0.055,-0.017Zm0.043,-0.087c-0.002,0.007 -0.003,0.018 -0.003,0.033c-0,0.015 0.001,0.025 0.003,0.032c0.002,0.007 0.006,0.01 0.012,0.01c0.006,-0 0.01,-0.003 0.012,-0.01c0.002,-0.007 0.003,-0.017 0.003,-0.032c0,-0.015 -0.001,-0.026 -0.003,-0.033c-0.002,-0.006 -0.006,-0.01 -0.012,-0.01c-0.006,0 -0.01,0.004 -0.012,0.01Z" style="fill:#080818;fill-rule:nonzero;"/><path d="M1.583,0.32c0.014,-0 0.025,0.005 0.035,0.016c0.009,0.012 0.014,0.026 0.014,0.044c0,0.018 -0.002,0.044 -0.007,0.079l-0.049,-0l-0.006,-0.064c-0.002,-0.02 -0.008,-0.031 -0.017,-0.031c-0.01,0 -0.016,0.011 -0.017,0.031l-0.002,0.064l-0.052,-0l-0.006,-0.135l0.064,-0l-0.001,0.024c0.001,-0.002 0.003,-0.005 0.006,-0.009c0.004,-0.004 0.007,-0.007 0.01,-0.01c0.009,-0.006 0.018,-0.009 0.028,-0.009Z" style="fill:#080818;fill-rule:nonzero;"/><path d="M-0.509,-0.186c0.011,-0 0.02,-0.006 0.026,-0.018c0.006,-0.012 0.009,-0.024 0.009,-0.037c-0,-0.013 -0.003,-0.023 -0.007,-0.031c-0.005,-0.007 -0.011,-0.011 -0.018,-0.011l-0.002,-0l-0.009,0.097l0.001,-0Zm-0.001,0.024l-0.047,-0l-0.014,-0.146l0.07,0c0.036,0 0.061,0.01 0.074,0.03c0.007,0.01 0.011,0.022 0.011,0.037c-0,0.052 -0.032,0.079 -0.094,0.079Z" style="fill:#080818;fill-rule:nonzero;"/><path d="M-0.363,-0.16c-0.013,0 -0.023,-0.003 -0.031,-0.011c-0.008,-0.007 -0.012,-0.017 -0.012,-0.03c0,-0.013 0.005,-0.023 0.014,-0.029c0.009,-0.006 0.02,-0.009 0.032,-0.009c0.013,0 0.024,0.002 0.033,0.006c-0.002,-0.013 -0.01,-0.02 -0.025,-0.02c-0.007,0 -0.015,0.002 -0.025,0.004l-0.006,-0.021c0.014,-0.006 0.029,-0.009 0.044,-0.009c0.043,-0 0.064,0.018 0.064,0.054c0,0.013 -0.001,0.03 -0.004,0.052l-0.001,0.011l-0.04,-0l-0.001,-0.013c-0.011,0.01 -0.025,0.015 -0.042,0.015Zm0.021,-0.029c0.007,-0 0.014,-0.002 0.019,-0.006l-0.002,-0.016c-0.004,-0.003 -0.008,-0.004 -0.013,-0.004c-0.005,-0 -0.009,0.001 -0.012,0.003c-0.003,0.003 -0.005,0.006 -0.005,0.009c0,0.004 0.002,0.007 0.004,0.009c0.002,0.003 0.005,0.005 0.009,0.005Z" style="fill:#080818;fill-rule:nonzero;"/><path d="M-0.197,-0.205c0,0.009 0.003,0.014 0.01,0.014c0.002,0 0.004,-0.001 0.007,-0.003l0.005,0.024c-0.001,0.001 -0.002,0.002 -0.004,0.003c-0.002,0.001 -0.005,0.002 -0.011,0.004c-0.005,0.002 -0.011,0.003 -0.017,0.003c-0.011,0 -0.02,-0.003 -0.026,-0.011c-0.007,-0.007 -0.011,-0.017 -0.012,-0.028l-0.002,-0.046l-0.018,0l0.003,-0.031l0.014,0l-0.001,-0.023l0.057,-0.012l-0.002,0.035l0.014,0l0.003,0.031l-0.018,0l-0.002,0.04Z" style="fill:#080818;fill-rule:nonzero;"/><path d="M-0.119,-0.16c-0.013,0 -0.023,-0.003 -0.031,-0.011c-0.008,-0.007 -0.012,-0.017 -0.012,-0.03c0,-0.013 0.005,-0.023 0.014,-0.029c0.009,-0.006 0.019,-0.009 0.032,-0.009c0.013,0 0.024,0.002 0.033,0.006c-0.002,-0.013 -0.01,-0.02 -0.025,-0.02c-0.007,0 -0.015,0.002 -0.025,0.004l-0.006,-0.021c0.014,-0.006 0.029,-0.009 0.044,-0.009c0.043,-0 0.064,0.018 0.064,0.054c0,0.013 -0.001,0.03 -0.004,0.052l-0.001,0.011l-0.04,-0l-0.001,-0.013c-0.011,0.01 -0.025,0.015 -0.042,0.015Zm0.021,-0.029c0.007,-0 0.013,-0.002 0.019,-0.006l-0.002,-0.016c-0.004,-0.003 -0.008,-0.004 -0.013,-0.004c-0.005,-0 -0.009,0.001 -0.012,0.003c-0.003,0.003 -0.005,0.006 -0.005,0.009c0,0.004 0.001,0.007 0.004,0.009c0.002,0.003 0.005,0.005 0.009,0.005Z" style="fill:#080818;fill-rule:nonzero;"/></svg>