<?xml version="1.0" encoding="UTF-8" standalone="no"?><!DOCTYPE svg PUBLIC "-//W3C//DTD SVG 1.1//EN" "http://www.w3.org/Graphics/SVG/1.1/DTD/svg11.dtd"><svg width="100%" height="100%" viewBox="0 0 8 8" version="1.1" xmlns="http://www.w3.org/2000/svg" xmlns:xlink="http://www.w3.org/1999/xlink" xml:space="preserve" xmlns:serif="http://www.serif.com/" style="fill-rule:evenodd;clip-rule:evenodd;stroke-linejoin:round;stroke-miterlimit:2;"><g><g><circle cx="4" cy="3.921" r="3.882" style="fill:#5d667e;"/><circle cx="4.003" cy="3.565" r="3.394" style="fill:#29324e;"/><path d="M1.136,2.935c-0.006,-0.021 -0.005,-0.041 0.004,-0.056c0.029,-0.05 0.137,-0.052 0.236,0.011c0.045,0.028 0.058,0.038 0.095,0.074l0.042,0.047c0.288,0.07 0.463,0.228 0.432,0.367c-0.03,0.138 -0.289,0.195 -0.577,0.125c-0.013,-0.003 -0.026,-0.007 -0.039,-0.01c-0.033,0.034 -0.079,0.049 -0.145,0.033c-0.167,-0.041 -0.326,-0.203 -0.291,-0.363c0.003,-0.01 0.005,-0.021 0.008,-0.031c-0,-0.002 0,-0.004 0.001,-0.007c0.001,-0.004 0.002,-0.008 0.003,-0.011c0.033,-0.132 0.078,-0.216 0.227,-0.18c0.001,0 0.003,0 0.004,0.001Z" style="fill:#edbd58;"/><g><path d="M3.924,1.784c0.899,0 1.628,0.129 1.628,0.405c0,0.276 -0.729,0.59 -1.628,0.59c-0.899,-0 -1.628,-0.314 -1.628,-0.59c-0,-0.276 0.729,-0.405 1.628,-0.405Z" style="fill:#edbd58;"/><path d="M3.924,0.424c0.303,0.426 0.599,0.952 0.868,1.637c-0.265,0.347 -1.479,0.308 -1.736,0c0.229,-0.615 0.526,-1.152 0.868,-1.637Z" style="fill:#edbd58;"/></g><path d="M3.925,3.005l0.645,-0.112c0.486,0.133 1.093,0.187 1.677,0.051c0.098,0.216 0.193,0.486 0.089,0.684c-0.26,0.497 -0.664,0.798 -1.132,0.958c0.034,0.656 0.227,1.627 0.452,2.212c0.078,0.204 -2.376,0.923 -3.597,0.223c0.105,-0.928 0.18,-1.713 0.581,-2.435c-0.488,-0.154 -0.792,-0.423 -1.052,-0.958c-0.104,-0.213 -0.115,-0.421 -0.014,-0.623c0.446,0.101 0.982,0.042 1.474,-0.061c0.076,-0.016 0.151,-0.033 0.226,-0.051l0.651,0.112Z" style="fill:#edbd58;"/><ellipse cx="6.663" cy="3.193" rx="0.723" ry="0.728" style="fill:#edbd58;"/><ellipse cx="1" cy="1.272" rx="0.723" ry="0.728" style="fill:#edbd58;"/><ellipse cx="6.55" cy="1.256" rx="0.361" ry="0.364" style="fill:#edbd58;"/><ellipse cx="3.03" cy="1.009" rx="0.281" ry="0.283" style="fill:#edbd58;"/><ellipse cx="0.496" cy="2.667" rx="0.281" ry="0.283" style="fill:#edbd58;"/><ellipse cx="5.282" cy="0.7" rx="0.174" ry="0.175" style="fill:#edbd58;"/><ellipse cx="4.59" cy="1.872" rx="0.707" ry="0.712" style="fill:#edbd58;"/><ellipse cx="2.059" cy="0.603" rx="0.404" ry="0.407" style="fill:#edbd58;"/><path d="M1.946,3.382c-0.03,0.135 -0.282,0.189 -0.562,0.122c-0.28,-0.068 -0.483,-0.233 -0.453,-0.368c0.03,-0.134 0.281,-0.189 0.561,-0.121c0.28,0.067 0.483,0.232 0.454,0.367Z" style="fill:#a49381;"/><path d="M5.937,3.488c0.053,0.087 0.442,0.112 0.732,0c0.242,-0.094 0.406,-0.319 0.348,-0.466c-0.058,-0.147 -0.348,-0.162 -0.646,-0.034c-0.298,0.129 -0.517,0.364 -0.434,0.5Z" style="fill:#a49381;"/><path d="M6.55,2.806c-0.043,-0.036 -0.142,0.019 -0.222,0.122c-0.08,0.103 -0.11,0.216 -0.067,0.252c0.043,0.036 0.142,-0.018 0.222,-0.121c0.08,-0.104 0.11,-0.217 0.067,-0.253Z" style="fill:#a49381;"/><path d="M3.188,3.012l1.472,-0c0.486,0.132 1.018,0.136 1.602,-0c0.099,0.215 0.104,0.423 0,0.621c-0.259,0.497 -0.685,0.759 -1.154,0.918c0.046,0.884 0.412,2.071 0.833,2.852c-0.044,0.03 -0.115,0.042 -0.191,0.076c-0.06,0.026 -0.112,0.117 -0.184,0.145c-0.086,0.033 -0.222,0.034 -0.316,0.062c-0.087,0.026 -0.171,0.138 -0.25,0.161c-0.094,0.027 -0.179,-0.004 -0.25,0c-0.119,0.007 -0.196,0.034 -0.199,0.028c-0.01,-0.019 -0.051,-0.085 -0.051,-0.085c-0.229,0.037 -0.649,0.058 -0.875,0.057l-0,0.111c-0,0.009 -0.099,0.003 -0.25,-0.037c-0.056,-0.014 -0.119,-0.062 -0.187,-0.074c-0.099,-0.018 -0.207,0.033 -0.318,0c-0.084,-0.025 -0.136,-0.135 -0.224,-0.161c-0.129,-0.038 -0.277,-0.016 -0.396,-0.062c-0.054,-0.021 -0.099,-0.102 -0.148,-0.124c-0.058,-0.026 -0.118,0.006 -0.167,-0.021c0.104,-0.928 0.395,-2.249 0.796,-2.97c-0.488,-0.154 -0.885,-0.342 -1.145,-0.876c-0.104,-0.213 -0.102,-0.42 -0,-0.621c0.515,0.115 1.047,0.131 1.602,-0Z" style="fill:#080818;"/><ellipse cx="3.924" cy="2.763" rx="0.585" ry="0.763" style="fill:#a49381;"/><ellipse cx="3.923" cy="3.248" rx="0.209" ry="0.119" style="fill:#fdadad;"/><path d="M5.107,4.558c-0.579,-0.242 -1.381,-0.253 -2.38,-0.048l-0.129,0.26c0.842,-0.232 1.832,-0.145 2.571,0.121l-0.062,-0.333Z" style="fill:#5d667e;"/><path d="M1.791,3.053c-0.085,0.625 0.268,1.173 0.941,1.461c-0.106,-0.108 -0.73,-0.757 -0.605,-1.42c-0.115,-0.011 -0.227,-0.025 -0.336,-0.041Z" style="fill:#5d667e;"/><path d="M4.5,7.79c-0.707,-1.112 -0.203,-2.293 -0.594,-3.29c0.384,1.524 -0.281,1.799 -0.281,3.349c0.375,0.022 0.79,-0.048 0.875,-0.059Z" style="fill:#5d667e;"/><path d="M6.081,3.05c0.102,0.628 -0.374,1.094 -0.971,1.502c-0,-0 0.643,-0.474 0.643,-1.456c0.126,-0.014 0.204,-0.027 0.328,-0.046Z" style="fill:#5d667e;"/><path d="M4.755,2.478c-0.025,0.13 -0.056,0.26 -0.118,0.39c-0.056,0.077 -0.084,0.25 -0.032,0.695c0.017,0.818 -0.067,1.523 -0.265,2.22c-0.024,-0.235 -0.069,-0.659 -0.093,-1.017c-0.027,0.61 -0.033,1.311 -0.078,1.863l-0.117,-0.477c-0.003,0.232 -0.041,0.435 -0.106,0.667c-0.048,-0.225 -0.097,-0.424 -0.118,-0.667c-0.048,0.115 -0.07,0.324 -0.108,0.477c-0.081,-0.517 -0.187,-1.279 -0.141,-1.863c-0.071,0.235 -0.093,0.651 -0.139,0.891c-0.157,-0.657 -0.263,-1.376 -0.226,-2.094c0.034,-0.235 0.038,-0.467 -0,-0.695c-0.065,-0.122 -0.103,-0.253 -0.121,-0.39l0.208,-0.217l0.233,0.815l0.182,-0.208l0.208,0.165l0.208,-0.165l0.176,0.208l0.239,-0.815l0.208,0.217Zm-1.021,0.765c-0.011,0.068 -0.024,0.136 -0.014,0.2l0.017,0.032c0.034,-0.019 0.052,-0.055 0.059,-0.102c0.085,0.037 0.17,0.037 0.256,0c0.002,0.048 0.024,0.081 0.059,0.102l0.012,-0.023c0.016,-0.064 0.002,-0.136 -0.015,-0.209l-0.184,-0.14l-0.19,0.14Z" style="fill:#ecebea;"/><g><path d="M3.856,3.443l0.116,0c-0,0 0.069,1.276 0.046,2.024c-0.007,0.257 -0.077,0.495 -0.094,0.54c-0.048,-0.171 -0.075,-0.32 -0.096,-0.505c-0.038,-0.636 0.018,-2.251 0.028,-2.059Z" style="fill:#80828b;"/><g><path d="M3.438,3.346c-0.05,0.364 0.059,0.725 0.19,1.085c-0.019,-0.332 -0.007,-0.642 0.044,-0.913c0.018,-0.158 0.131,-0.33 0.252,-0.408l0,-0.121c-0.046,-0.009 -0.059,-0.055 -0.087,-0.077c-0.04,-0.03 -0.086,-0.041 -0.1,-0.088c-0.153,0.112 -0.254,0.312 -0.299,0.522Z" style="fill:#80828b;"/><path d="M4.41,3.346c0.05,0.364 -0.058,0.725 -0.19,1.085c0.019,-0.332 0.007,-0.642 -0.044,-0.913c-0.017,-0.158 -0.131,-0.331 -0.252,-0.408l0,-0.121c0.046,-0.009 0.059,-0.055 0.088,-0.077c0.039,-0.03 0.086,-0.041 0.099,-0.088c0.154,0.112 0.254,0.312 0.299,0.522Z" style="fill:#80828b;"/></g></g><path d="M3.925,2.588c0.003,-0.001 0.006,-0.002 0.009,-0.002c0.039,0 0.066,0.256 0.101,0.246c0.209,-0.062 0.078,0.102 0.024,0.116c-0.034,0.009 -0.093,0.187 -0.125,0.187l-0.018,-0c-0.032,-0 -0.091,-0.178 -0.126,-0.187c-0.054,-0.014 -0.184,-0.178 0.025,-0.116c0.035,0.01 0.062,-0.246 0.101,-0.246c0.003,0 0.006,0.001 0.009,0.002Z" style="fill:#d2bba1;"/><g><path d="M3.924,1.827c0.86,-0 1.559,0.123 1.559,0.387c-0,0.264 -0.699,0.565 -1.559,0.565c-0.86,-0 -1.559,-0.301 -1.559,-0.565c0,-0.264 0.699,-0.387 1.559,-0.387Z" style="fill:#080818;"/><path d="M3.924,0.524c0.29,0.408 0.573,0.912 0.831,1.568c-0.254,0.332 -1.416,0.294 -1.662,-0c0.219,-0.589 0.504,-1.103 0.831,-1.568Z" style="fill:#080818;"/></g><g><path d="M0.961,1.536c-0.008,-0.033 -0.038,-0.052 -0.068,-0.044l-0.106,0.03c-0.029,0.008 -0.046,0.041 -0.038,0.073c0.398,2.213 1.229,4.158 1.575,6.136c0.008,0.032 0.038,0.052 0.068,0.043l0.106,-0.029c0.029,-0.009 0.046,-0.041 0.038,-0.074c-0.343,-2.026 -1.188,-4.018 -1.575,-6.135Z" style="fill:#625246;"/><path d="M1.154,2.439c0.099,-0.503 -0.113,-0.867 -0.143,-0.859l-0.077,-0.013l-0.148,0.041c-0.03,0.007 -0.076,0.057 -0.074,0.062c-0.028,0.593 0.194,0.696 0.244,0.864c0.001,0.005 0.026,0.003 0.055,-0.005l0.107,-0.029c0.029,-0.008 0.037,-0.056 0.036,-0.061Z" style="fill:#625246;"/><path d="M0.777,0.915c0.236,-0.009 0.406,0.165 0.393,0.393c-0.012,0.216 -0.176,0.392 -0.393,0.392c-0.216,0 -0.354,-0.179 -0.392,-0.392c-0.042,-0.231 0.155,-0.383 0.392,-0.393Zm0,0.196c0.105,0.027 0.227,0.093 0.197,0.197c-0.029,0.097 -0.1,0.226 -0.197,0.196c-0.093,-0.029 -0.182,-0.107 -0.196,-0.196c-0.019,-0.121 0.066,-0.23 0.196,-0.197Z" style="fill:#625246;"/></g><path d="M1.148,2.935c-0.006,-0.021 -0.005,-0.04 0.004,-0.056c0.029,-0.05 0.133,-0.04 0.232,0.023c0.099,0.063 0.156,0.155 0.127,0.206c-0.014,0.023 -0.045,0.034 -0.084,0.031c0.012,0.034 0.015,0.071 0.006,0.11c-0.035,0.16 -0.069,0.317 -0.237,0.277c-0.167,-0.041 -0.326,-0.203 -0.29,-0.363c0.035,-0.159 0.071,-0.269 0.238,-0.229c0.002,0 0.003,0.001 0.004,0.001Z" style="fill:#edbd58;"/><path d="M1.164,2.893c0.03,-0.051 0.132,-0.043 0.228,0.018c0.096,0.062 0.151,0.153 0.121,0.204c-0.029,0.051 -0.131,0.043 -0.228,-0.019c-0.096,-0.061 -0.15,-0.152 -0.121,-0.203Z" style="fill:#a49381;"/><path d="M4.803,2.081c-0.73,0.45 -1.661,0.212 -1.746,-0c0.075,-0.13 0.138,-0.259 0.196,-0.389c0.837,0.304 0.603,0.329 1.347,0.024c0.047,0.131 0.131,0.233 0.203,0.365Z" style="fill:#5d667e;"/><g><path d="M4.789,4.609c-0.025,-0.046 0,-0.296 0,-0.354c0,-0.161 0.072,-0 0.212,-0c0.141,-0 0.168,-0.058 0.168,0.103c-0,0.058 -0.142,0.205 -0.168,0.251c0.089,0.075 0.239,0.357 0.239,0.492c0,0.227 -0.127,0.363 -0.325,0.363c-0.199,0 -0.314,-0.136 -0.314,-0.363c-0,-0.135 0.1,-0.417 0.188,-0.492Z" style="fill:#786455;"/><path d="M4.82,4.601c-0.018,-0.033 -0.014,-0.317 -0.014,-0.358c-0,-0.115 0.089,0.093 0.19,0.093c0.1,-0 0.147,-0.115 0.147,-0c0,0.042 -0.153,0.232 -0.171,0.265c0.063,0.054 0.201,0.392 0.201,0.489c-0,0.163 -0.112,0.269 -0.254,0.269c-0.142,-0 -0.252,-0.077 -0.252,-0.239c-0,-0.097 0.09,-0.465 0.153,-0.519Z" style="fill:#625246;"/><path d="M5.047,4.559c-0.001,-0.006 -0.007,-0.011 -0.013,-0.011l-0.285,0.022c-0.007,0.001 -0.012,0.007 -0.011,0.013l0.002,0.024c0.001,0.007 0.007,0.012 0.013,0.011l0.286,-0.021c0.006,-0.001 0.011,-0.007 0.01,-0.013l-0.002,-0.025Z" style="fill:#3a332d;"/><path d="M5.029,4.592c0.002,-0.007 -0.001,-0.013 -0.008,-0.015l-0.244,-0.06c-0.006,-0.001 -0.013,0.002 -0.015,0.009l-0.008,0.023c-0.002,0.007 0.002,0.013 0.008,0.015l0.244,0.06c0.007,0.001 0.014,-0.002 0.016,-0.009l0.007,-0.023Z" style="fill:#3a332d;"/></g><ellipse cx="2.544" cy="1.421" rx="0.137" ry="0.138" style="fill:#edbd58;"/><ellipse cx="4.386" cy="0.717" rx="0.099" ry="0.1" style="fill:#edbd58;"/><path d="M1.443,3.231c-0.034,0.154 -0.067,0.306 -0.236,0.265c-0.17,-0.041 -0.332,-0.2 -0.298,-0.354c0.034,-0.153 0.07,-0.259 0.239,-0.218c0.169,0.041 0.33,0.154 0.295,0.307Z" style="fill:#edbd58;"/><path d="M1.453,3.203c-0.035,0.156 -0.085,0.362 -0.248,0.323c-0.162,-0.039 -0.317,-0.197 -0.283,-0.353c0.035,-0.155 0.07,-0.262 0.233,-0.223c0.162,0.04 0.332,0.098 0.298,0.253Z" style="fill:#a49381;"/><path d="M1.184,2.855c0.063,-0.017 0.135,0.064 0.161,0.18c0.026,0.116 -0.004,0.225 -0.068,0.241c-0.063,0.017 -0.135,-0.063 -0.161,-0.179c-0.026,-0.117 0.005,-0.225 0.068,-0.242Z" style="fill:#edbd58;"/><path d="M1.21,2.861c0.057,-0.016 0.125,0.068 0.15,0.179c0.024,0.112 -0.014,0.218 -0.071,0.233c-0.057,0.016 -0.124,-0.062 -0.148,-0.174c-0.025,-0.111 0.012,-0.223 0.069,-0.238Z" style="fill:#a49381;"/></g></g></svg>